/* XPM */
static char *_a6abbc49fbc46e19da1ec807273af6aPjBMv7FXh1LP2l4l[] = {
/* columns rows colors chars-per-pixel */
"64 64 252 2 ",
"   c #32301B",
".  c #34322C",
"X  c #573928",
"o  c #78701B",
"O  c #69452D",
"+  c #71492F",
"@  c #605427",
"#  c #6D4931",
"$  c #704733",
"%  c #744D33",
"&  c #7A4E32",
"*  c #7D5136",
"=  c #7E5239",
"-  c #57574D",
";  c #5E615E",
":  c #686655",
">  c #727370",
",  c #AA7E1B",
"<  c #835435",
"1  c #8A5737",
"2  c #835539",
"3  c #83593B",
"4  c #8D5B3B",
"5  c #935E3E",
"6  c #94613E",
"7  c #99623F",
"8  c #857A3E",
"9  c #865C41",
"0  c #945E40",
"q  c #8C6446",
"w  c #956342",
"e  c #9B6543",
"r  c #966B45",
"t  c #9E6945",
"y  c #9E6C4B",
"u  c #95734E",
"i  c #9B7757",
"p  c #A26743",
"a  c #A26A46",
"s  c #A46D49",
"d  c #A96E4A",
"f  c #A6714C",
"g  c #AB724D",
"h  c #AC724F",
"j  c #A97A4E",
"k  c #A57353",
"l  c #AD7551",
"z  c #AD7954",
"x  c #A37A5A",
"c  c #AD7C5A",
"v  c #B17651",
"b  c #B37A55",
"n  c #B47E59",
"m  c #B87E59",
"M  c #B07F60",
"N  c #92861C",
"B  c #AA8419",
"V  c #BA8A17",
"C  c #B7941B",
"Z  c #B5AA0F",
"A  c #BAA91A",
"S  c #BDB11D",
"D  c #988D37",
"F  c #B18C31",
"G  c #BEB522",
"H  c #B9A934",
"J  c #D89F0E",
"K  c #C68D15",
"L  c #CB9413",
"P  c #C89716",
"I  c #D69817",
"U  c #D49C14",
"Y  c #CCAB0C",
"T  c #D7A50D",
"R  c #CAB60D",
"E  c #D7BC0E",
"W  c #CCAB14",
"Q  c #C8A919",
"!  c #D7A517",
"~  c #DBA314",
"^  c #C5B517",
"/  c #CCB415",
"(  c #CCBC14",
")  c #CBB31B",
"_  c #CDBD1A",
"`  c #D1BD14",
"'  c #D8BA14",
"]  c #D1B61C",
"[  c #D2BB1B",
"{  c #E8AD0D",
"}  c #ECB60B",
"|  c #FAB604",
" . c #F8BA07",
".. c #F3B50E",
"X. c #FAB60A",
"o. c #E6A913",
"O. c #E5AB13",
"+. c #E3AD1B",
"@. c #F2AE15",
"#. c #EBB112",
"$. c #E6B318",
"%. c #F2B412",
"&. c #F8B611",
"*. c #C89922",
"=. c #C99C37",
"-. c #C9A926",
";. c #D6A728",
":. c #CCB826",
">. c #D1BC24",
",. c #D0A73B",
"<. c #CABB38",
"1. c #E1AB23",
"2. c #D8C90E",
"3. c #CEC114",
"4. c #D3C315",
"5. c #DBC414",
"6. c #D6CA15",
"7. c #DCCC14",
"8. c #D3C31A",
"9. c #D7C71A",
"0. c #DBCB1B",
"q. c #DDD113",
"w. c #DBD018",
"e. c #E5CA0B",
"r. c #F6C70A",
"t. c #E4D40D",
"y. c #EDD40D",
"u. c #E6D80D",
"i. c #ECDB0D",
"p. c #F4D40B",
"a. c #F3DB0C",
"s. c #FAD809",
"d. c #E5C815",
"f. c #E5CA14",
"g. c #F7C710",
"h. c #E3D313",
"j. c #E9D615",
"k. c #ECDB14",
"l. c #E4D61A",
"z. c #E6DA1B",
"x. c #EBDC1A",
"c. c #F5DC13",
"v. c #ECE109",
"b. c #FBE606",
"n. c #FEEB04",
"m. c #F4E40C",
"M. c #FAE40C",
"N. c #F7EA0B",
"B. c #FCEA0A",
"V. c #EDE114",
"C. c #EEE319",
"Z. c #F3E312",
"A. c #FAE611",
"S. c #FAEA12",
"D. c #F5E718",
"F. c #CCC324",
"G. c #D5C827",
"H. c #DDD223",
"J. c #DCD12B",
"K. c #CEC638",
"L. c #D7CA35",
"P. c #DED338",
"I. c #E0CD2F",
"U. c #E3D825",
"Y. c #E2D539",
"T. c #EDE22D",
"R. c #F7EA28",
"E. c #F9EC39",
"W. c #98814F",
"Q. c #AC8747",
"!. c #AE8D48",
"~. c #BB954C",
"^. c #A7855A",
"/. c #B5815C",
"(. c #BA835D",
"). c #B68A59",
"_. c #AA9458",
"`. c #B49859",
"'. c #B5AA4E",
"]. c #B7A659",
"[. c #8A8875",
"{. c #AD8362",
"}. c #AC866B",
"|. c #BC8661",
" X c #B68865",
".X c #BD8B63",
"XX c #AC956F",
"oX c #B99764",
"OX c #BC946D",
"+X c #B89577",
"@X c #B2A864",
"#X c #AAA377",
"$X c #B5A977",
"%X c #BAB675",
"&X c #C59951",
"*X c #C6A846",
"=X c #C8B948",
"-X c #C5A55B",
";X c #C6B857",
":X c #C18C66",
">X c #C48F6D",
",X c #C4926C",
"<X c #C7996F",
"1X c #C9B468",
"2X c #C5AB78",
"3X c #C8B979",
"4X c #CFC548",
"5X c #D8CA45",
"6X c #CDC256",
"7X c #D5C458",
"8X c #DFD75A",
"9X c #E4D744",
"0X c #E5DA56",
"qX c #F7EC4B",
"wX c #EBE15C",
"eX c #F9ED59",
"rX c #CCC363",
"tX c #D9CA6F",
"yX c #C9C579",
"uX c #DCD576",
"iX c #E6DF6F",
"pX c #E4DB79",
"aX c #F3EB6E",
"sX c #FCF173",
"dX c #7F8386",
"fX c #8F918E",
"gX c #BA9A85",
"hX c #BAA686",
"jX c #B7AE8E",
"kX c #B3B2B2",
"lX c #C39F82",
"zX c #C8A689",
"xX c #C6BB86",
"cX c #CFAF95",
"vX c #C8B799",
"bX c #CBBBAA",
"nX c #CBC583",
"mX c #D4CD8B",
"MX c #DBD488",
"NX c #C7C295",
"BX c #D3CB96",
"VX c #E2DF95",
"CX c #EBE389",
"ZX c #F4EB84",
"AX c #ECE699",
"SX c #F6EE9D",
"DX c #FCF59C",
"FX c #CDCAB9",
"GX c #DCD6C5",
"HX c #DEDFD9",
"JX c #E1DFCA",
"KX c #E1E1DA",
/* pixels */
"g g z b d g v d d a f a a t g a a d v b z l b g f a t e t d a t y b v b g s p w r l v g a f f e a f l g g f g g g f f 6 t a s f ",
"g g g v g v d a s a f a t a f e d v v z l z g f f p t t p e a f z g /./.d d a f b b b g a t /.s g s b g s l g g b f e t f e f f ",
"f v v g g v d d g g a s t t 6 t v n (.m /.e t g s s e a t w l l f z (.n v v v v m b z g s w l l s a g b a g f l z e t e t a g y ",
"g z c g v v d g g d f s s 6 w f n |.|.(.l k /./.l s s r e k /.f z b z /.g g g /.b b g f l e a f a f z n a a l s y a 7 e a /.q < ",
"g c k v v v g f s f g 7 s t 1 /.|.(.OXl c ,Xn a w s w 3 k s r s n l z l t f f z b d l s l l s f s l n c g f e e a d a z |.(.y + ",
"v g d v v g a d v s t v e k l ,X.Xn /.s :Xs t w y  Xl c |.l f b k n  X|.y /././.M l b l w z g g d /.n f g g e w l f {.:Xg v v k ",
"l e z n g g d /.v a f :Xz w |./.(.b /.l f a g .X|.l /./.c ^..XOXOX+XhX+X+X+XzXOX+X>X X/.k l b v v b v v h p t s OXs n v d l v v ",
"l w n v v g v (.d j m n v 4 y n f |.f e M ,X,X:Xz z OXOXOXzXnXmXVXMXmXmXnX$X#X#X#XhXhX+X}.{.{./.(.v f b s t l c l g f v g l v z ",
"g z l l g g l v y /.l v t 5 /./.d d {.cXlX:X>X/.,X2X3XuXpXiXiXeXeXeXaXaXsXZXZXMX3X%X#X[.#XjXjXhX>Xl d l l s f e t g a d g v v l ",
"b g g l g v g g a w s t 4 k m m p +XcXzXn :X<X3XuXiX0X9XP.G.4.` [ G.H.U.T.E.eXsXZXMX%X%XyXBXNXvXzX{.f l g s t 0 a s w l d d z b ",
"w f z g v g g g a 5 e t v v v b {.cX:X/.).3XpXwX9X<.-.) ] 5.e.e.e.2.6.4.( 5.z.R.qXsXaXyXyXVXAXBXvXjX}.k a w p t s s w k d g v v ",
"r l t f |.w s s a s t s f f f f cX,X:XoXtXwXP.-.Y ' d.c.M.B.n.n.n.n.B.M.j.9._ 0.x.R.eXaXyXyXmXMXMXjXhX}.t t t d g y w s d g v v ",
"l |.k g v s 6 a d p w w 5 4 w +X<X:X1XwX9X:.Q E y.M.M.n.n.n.n.n.n.n.n.n.n.A.k.3.4.k.A.qXZXyX$XyXmX3X#X#X{.y a l g f 6 f l s l v ",
"l (.n g v s 6 a e 5 5 2 * 7 +XcX:X7X0XG.W Y e.M.M.M.n.n.n.n.n.n.n.n.n.n.n.n.n.V.8.` i.R.eXCXnXMXSXSXAXBXjXx a l d s e s g s y l ",
"v ,Xc 6 d p 5 p t 0 1 % 1 |.cX).7XY.:.Q E s.b.B.B.B.n.n.n.n.n.n.n.n.n.n.n.n.n.b.k.] 5.Z.E.sXuXnXAXDXDXDXBXXXn d g a t a s s s a ",
"b <Xk w d w e 0 e t 1 < k zX).=XY./ Y d.c.B.n.n.n.n.n.n.n.n.n.b.n.n.n.n.n.n.n.n.B.j.( q.D.eXCXyXMXSXDXDXAXxX{.s a d t t l a d s ",
"l <X0 * k 9 a 0 e 6 1 a z ).7XL.Q Q d.Z.S.B.n.n.n.n.n.n.n.n.n.n.n.n.n.n.n.n.n.n.n.b.6.3.v.E.sXyX@XrXuXuXCXnXXXx e s t f g a a f ",
"M OXe $ k X O g f = q w z 6XP.A C C Q t.b.n.n.n.n.n.n.n.n.n.n.n.n.n.n.b.n.n.n.n.n.n.u.( q.R.sXpX'.8.H.L.5X=X_.{.s g f g g a e t ",
"lXn a v g 6 3 l r 2 2 q 1X9X:.C A _ ^ 5.m.n.n.n.n.n.n.n.n.n.n.n.n.n.n.n.n.n.n.N.N.N.Z.6.w.R.qXpX6Xz.B.S.A.a.>.`.c b z s s f t t ",
"zXa 9 l f d f e 4 = 1 Q.9XG.-.-._ 8.^ w.N.n.n.n.n.n.n.n.n.n.n.n.n.n.n.n.n.S.k.w.l.Z.S.w.0.C.qXiX6Xl.B.n.M.B.z.;X Xg g t d g a 7 ",
"|.z g a 5 w t w % q 3 7XY.-.[ l.8.S F.J.x.A.b.n.n.n.n.n.n.n.n.n.n.n.n.n.N.C.8.^ ^ 9.m.t.4.k.R.aX6Xw.M.n.B.B.k.=X Xz g d d d a 6 ",
"b v p 9 t 4 s = % 6 ^.5X[ ] y.A.U.K.yXNXyXK.x.N.B.B.n.n.n.n.n.B.n.n.N.n.n.V.8.H.H._ u.t.( t.R.wX6XG.x.D.B.B.m.L.oXm v f f d f t ",
"g t # = t 4 s w 5 = ;XP.) 5.A.Z.K.mXGXHXJXBX4Xx.n.B.n.n.n.n.n.n.N.V.V.V.B.D.0._ F.3.u.j.( t.D.wX;XH ` h.j.k.k.K.oX/.g g s s s h ",
"l e * e 5 k b 3 # j 5X>./ y.N.z.rXFXkXfXfXkX3XJ.n.n.n.n.n.B.N.V.J.6XyXyX6XU.x.l.0.k.N.k._ u.D.qX=XF.d.0.9._ 4.H oX/.d g f s s g ",
"s d w 5 j s w * 9 ].Y.) E M.N.w.yXfXdXdX- > #XJ.N.n.n.n.n.B.V.K.nXGXKXKXGXrXH.S.S.B.n.V._ t.S.9X4XC.N.N.N.m.u.:.oX^.a s h f a a ",
"a a = r t % 2 2 q 7XL.W e.M.Z.L.$X: - - . - _.J.N.B.n.n.n.N.L.nXFXkXfXfXFXNXL.N.n.n.n.C.) q.S.P.K.C.n.n.n.B.S.G.].^.s s h f a q ",
"g * q l O % = = W.5X] Y p.b.q.G D o @     : '.U.n.n.n.n.n.v.4XbXfXfX; . dXjXL.v.n.n.n.k./ t.B.z.F.k.n.n.n.B.B.G.oXx s s s a s w ",
"p 2 a 2 . % k = ].9X] ' a.b.V.z.z.2.2.Z N D K.v.N.N.n.n.n.V.=XjX> > ; . - @XH.N.n.n.B.u.( u.N.h._ j.N.n.n.n.n.G._.k h a a a d d ",
"7 1 a * X = g u ;XY.] } m.B.n.N.N.N.n.n.N.w.6.q.w.k.B.n.n.k.;X#X-       - _.H.N.n.n.n.t.3.i.N.w.S 3.7.7.f.k.k.<.^.k g a s l s l ",
"0 w 2 O + 9 w ^.8XY.W e.b.n.N.n.n.N.n.n.S.w.3.6.7.t.m.N.n.m.:.'.D o o o 8 H H.N.n.n.n.h.9.k.S.4.A R R ^ / 4.4.H ^.a g d a h v s ",
"3 a % 2 % g x $X0X>.Y y.n.b.n.n.n.n.n.n.N.3.3.x.S.B.n.n.n.b.v.k.z.V.C.z.6.3.w.Z.n.n.n.7.0.Z.S.^ 4.m.n.N.S.D.k.=X^.y g f g g h l ",
"6 e = < w b c 2X0X:.! p.b.n.n.n.n.n.n.n.N.q.3.6.m.B.B.n.n.B.n.B.N.N.n.n.n.N.N.n.b.n.m.9.0.A.k.^ 7.M.B.B.n.n.V.'.{.y f g s s h l ",
"t e 4 5 y t i 1X9X] ' a.n.N.n.n.b.n.n.n.M.S.j.c.N.n.n.n.n.n.n.n.n.n.n.n.n.n.n.n.B.n.k./ t.B.u.( j.B.n.n.n.n.l.;X}.s s g d d f v ",
"e 5 1 4 e w x 1X9X_ } s.n.n.n.n.n.n.n.n.n.B.B.B.n.n.n.n.m.v.m.N.n.n.n.n.n.n.n.n.n.N.h.( u.N.f.F.x.N.n.B.B.n.w.]./.s s g g d d v ",
"e 5 4 a t w i 1XP.>.d.M.B.n.n.n.n.n.n.n.n.n.B.B.n.n.n.B.q.3.6.C.N.n.n.n.n.n.n.n.N.N.6.2.m.A./ Q 0.j.V.V.m.Z.K.`.c a s s d d g v ",
"4 h a d 0 4 ^.;XJ.:.e.M.B.B.n.n.n.n.n.n.n.B.B.B.n.n.B.N.w.S A 6.N.n.n.n.n.n.n.n.N.V.3.q.N.k.A V P Q W [ 9.G.'.^.f a a s g d f g ",
"k h t t 4 < i =XU.] e.M.B.B.n.n.n.n.b.n.n.N.S.Z.C.k.h.3.Z 8.G.w.N.n.n.n.n.n.n.n.N.7.3.k.M.d.P ! %.} } #.! C _.x e p g p g d g g ",
"z t s w < & i =XU.] e.b.n.n.n.n.n.n.n.n.B.S.h.3.S S G A S z.N.N.N.n.n.n.n.n.n.n.Z.4.7.Z.A.] ! @.| | | | | ;.oXk 4 d g p d g g g ",
"a l s 4 * * i <.l.` E m.n.B.n.n.n.n.n.n.B.N.v.k.4.^ ^ _ u.Z.N.n.n.N.n.n.n.n.n.S.f.( t.B.y.W J %.| | | | } ,. Xq e g v d d g g g ",
"t a 5 4 * 4 i =Xk.E / a.n.n.n.n.n.n.n.n.n.n.n.n.M.a.i.m.n.N.n.n.n.n.n.n.n.n.n.N.9.7.m.M.5.P O.X.| | | | O.-X^.e b g d d p g g g ",
"a e 5 < & 4 u =Xx.7./ p.M.n.n.n.n.n.n.n.n.n.B.S.B.n.n.n.n.n.n.n.n.n.n.n.n.n.B.w.4.k.B.i.Q P { X.| X.X.&.;.oXx g f p s d t s g l ",
"a e 4 & * 5 y '.z.U.] e.M.B.n.n.b.n.n.n.n.n.n.n.n.n.n.n.n.n.n.n.n.n.n.n.n.S.V.5.0.M.N.} V V I J O.O.#.1.-X^.k g s 7 w d a a l d ",
"p 4 < % < 5 k '.H.D.] ' c.n.n.n.n.n.n.n.n.n.B.n.n.n.n.n.n.n.n.n.n.n.n.n.N.A.6.4.k.n.y.W L O.O.U L L K F  Xk l l g p 6 b a a d d ",
"e 4 $ & 4 4 t ^.G.Z.d.) y.M.n.n.n.n.n.n.n.B.n.n.n.n.n.n.n.n.n.n.n.n.N.n.N.t.( l.b.a.} K ~ | X.&.| { I ~.x l g a f 5 e b s h d d ",
"4 < X % 1 4 t ^.<.m.C./ ' a.B.n.n.n.n.n.n.n.n.n.n.n.n.n.n.n.n.n.n.n.N.N.u.3.9.A.M.e.I I @.X.| X.X...-.).c s p s a a l d d h s d ",
"1 % X = 5 6 t c *Xx.S.7.R f.S.n.n.n.n.n.n.n.n.n.n.n.n.n.n.n.n.n.n.n.N.V.3.8.C.M.r.~ L O.&.X.| | | +.~.l t t a t a a d v d s d s ",
"1 O X e s t t k !.G.N.Z.( / j.b.n.n.n.n.n.n.n.n.n.n.n.n.n.n.n.n.n.N.D.6.8.k.N.s.$.V K T %...X.X.@.=.z h s 0 s y s s h d h p d s ",
"< + + a t e t e x <.x.S.j./ [ k.S.n.n.n.n.n.n.n.n.n.n.n.n.n.n.b.N.D.6.3.z.N.s.} ~ P L P I O.#.#.*.~.l a p 5 g s d l h d d s g s ",
"& & 2 e 5 e e t h !.G.A.A.j.) ] k.N.B.n.n.n.n.n.n.n.n.n.n.n.B.S.m.4.( h.N.s.| T L O.%.{ I L P P Q./.a a e 4 l f d g g g d d g d ",
"& < 4 t t d s a a c H y.M.A.j./ / j.A.A.B.n.n.n.b.n.n.n.n.n.N.u.( ( j.M.p. .o.L o.&.X.|  .} ;.Q.r g g f < f (.g d v v f a p v v ",
"5 < w a e p d s f f Q.-.c.M.B.c.] ) 7.k.A.b.n.n.n.b.n.n.B.k.7.( 6.a.s.r.} T L T &.X.| X.| #.F r k 5 v d 6 g n d g v g d d v m g ",
"a e a p 7 e d d d f l ).;.d.A.A.D.h./ ] d.y.m.Z.M.Z.m.i.7._ 4.j.c.s.r.} J K P #.X.X.| } @.&Xr 9 f * g a g p v d a s f v g v g g ",
"t t e t e 7 f s f f h v b ;.d.p.M.M.Z.w.( 4.[ 4.8.5.6.3.2.j.c.s.r. .} U P L L U O.@.%.;.~.).f % 4 4 t f v f g a p d d d v g v g ",
"l t t t 7 t v g g v g v z ).=.$. .s.s.M.A.k.a.y.h.u.i.a.c.s.r.r...~ L U #.%.{ U P *.*X&X).b b 4 < 5 e d l f f d a j d d v v g v ",
"t h a e e s g g v v f f h l |.~.,.#.&.g.g.p.p.s.s.p.r.r. ...#.~ K K ~ &.&.&.&.+.=.).OX|./.d n e & e 7 f 7 g l s d d d d g v v g ",
"t t e s a s g g g v s d s h l {.OX&X*X;.+.o.{ { } { { o.! I P K V P ~ O.@.1.*X-X2XlXm v v d /.f & 5 6 s a v t a g d p d d v v v ",
"7 a g d d g v d v g d d d g g a d n +X$XoXQ.Q.F B C C B , V I O.;.H F ~.-XzXcXzX|.n m b l z b b 4 * t s f g t s j d p d d f v v ",
"p h d d d v g v g g d d d g d d d h d d x gXjXXXXX_._.`.{._.@X1X2X2XvXbXbXzX(.h g b n v b b m n s % e s s s t t j p 7 p d p v v ",
"s f a a a d g g g d d d d d d d s d d v 9 < t y d }.zXvXvXbXGXGXvX+Xs p e d d d v v n b (.(./.m v 4 e t s g e e g p t d s d s v ",
"a a a p p g g f d p a d g d p d d f w v a 2 2 e w t s a r w 0 e 0 w e a e e h f v n v v (.:Xn /./.f e w f g w s g p f d d g a a ",
"e a a p a b g d d d p p g d d a d v a g a 5 < 1 s f g s t e 1 5 5 5 e t 7 e v v b b v l m :X:X/.n v p a l d s a p p p d a s s s ",
"p s s e g b f d d s d p g d d d s g f g s 5 < w l e b t e e 1 0 & 4 n s 6 5 v v b v b b m (.:X(.n v a d s d d e 5 7 d d a d d s ",
"d d e a v d g d d d a d a v d d d d d d a = 2 w 6 f b s t 6 e e & s (.p 6 1 d (.v v m (.(..X(.)./.v f d f s s e 4 4 s f a a p d ",
"p p a f g v g d d d d d d g d a d g g d t 1 4 w a /.m s w w a w 0 n v t w * n :Xv b b |.)./.,X(.(./.v a g g s p w 4 e f p 7 d d "
};
