/* XPM */
static char *_6e28fced0dc4ce7c357097d22e75566vmjSgztufFQcj7dC[] = {
/* columns rows colors chars-per-pixel */
"64 64 218 2 ",
"   c #12282D",
".  c #142C33",
"X  c #172D37",
"o  c #16333B",
"O  c #193539",
"+  c #1A343B",
"@  c #3A2C23",
"#  c #23383E",
"$  c #573928",
"%  c #4E4736",
"&  c #68442C",
"*  c #724A2F",
"=  c #6D4A31",
"-  c #704733",
";  c #744C32",
":  c #7A4E33",
">  c #655D3E",
",  c #7C5135",
"<  c #7E533A",
"1  c #77673D",
"2  c #1B3B42",
"3  c #193944",
"4  c #283C42",
"5  c #1D4145",
"6  c #1D424D",
"7  c #1E4651",
"8  c #1F4954",
"9  c #25454A",
"0  c #34474B",
"q  c #224C54",
"w  c #214D5A",
"e  c #3E4F54",
"r  c #245256",
"t  c #24525D",
"y  c #27595D",
"u  c #3B5555",
"i  c #39625C",
"p  c #255563",
"a  c #265965",
"s  c #2A5D64",
"d  c #285C69",
"f  c #2B6166",
"g  c #2D656B",
"h  c #2E696E",
"j  c #36696B",
"k  c #2D6671",
"l  c #2F6A72",
"z  c #2F6E79",
"x  c #316D75",
"c  c #316E79",
"v  c #367175",
"b  c #367278",
"n  c #32727C",
"m  c #4B574B",
"M  c #465657",
"N  c #4D5D5C",
"B  c #515F5D",
"V  c #506D57",
"C  c #52625F",
"Z  c #717254",
"A  c #4F5F61",
"S  c #536363",
"D  c #5B6A69",
"F  c #4F7069",
"G  c #616E6A",
"H  c #67736E",
"J  c #6A7874",
"K  c #727E78",
"L  c #B56414",
"P  c #835435",
"I  c #835539",
"U  c #875839",
"Y  c #8D5B3B",
"T  c #925E3D",
"R  c #995E3E",
"E  c #94613E",
"W  c #9B663A",
"Q  c #8D7138",
"!  c #CE7618",
"~  c #F57116",
"^  c #8A5D40",
"/  c #955F40",
"(  c #8D6447",
")  c #956242",
"_  c #9B6543",
"`  c #9E6945",
"'  c #986849",
"]  c #9E6B4A",
"[  c #8F7050",
"{  c #9C7254",
"}  c #A26743",
"|  c #A26B46",
" . c #A46C4A",
".. c #A96E4A",
"X. c #A6714C",
"o. c #AB724D",
"O. c #A47453",
"+. c #AD7551",
"@. c #AC7954",
"#. c #A3795B",
"$. c #AC7C5C",
"%. c #B17651",
"&. c #B27A55",
"*. c #B37D59",
"=. c #987963",
"-. c #A37E65",
";. c #B27F60",
":. c #708F5C",
">. c #5D816D",
",. c #678968",
"<. c #77837A",
"1. c #AC872B",
"2. c #B18735",
"3. c #C78C1A",
"4. c #F39519",
"5. c #F29A1E",
"6. c #CF9829",
"7. c #D8AA2B",
"8. c #ECAD28",
"9. c #FBC91D",
"0. c #F3CF2A",
"q. c #EAD834",
"w. c #898F4E",
"e. c #B6815B",
"r. c #BA845E",
"t. c #829967",
"y. c #A98468",
"u. c #AB856B",
"i. c #BB8661",
"p. c #B38A6D",
"a. c #B88968",
"s. c #BE906F",
"d. c #A88D73",
"f. c #B58D72",
"g. c #B98F74",
"h. c #AA9379",
"j. c #B3957B",
"k. c #B89578",
"l. c #BD9579",
"z. c #C4936B",
"x. c #C29A7C",
"c. c #2F7382",
"v. c #327582",
"b. c #357984",
"n. c #7A8682",
"m. c #848E84",
"M. c #8B958B",
"N. c #929A8E",
"B. c #949D93",
"V. c #AA9B85",
"C. c #B99C83",
"Z. c #9BA398",
"A. c #BAA38B",
"S. c #A4AA9C",
"D. c #B9AB96",
"F. c #AFB19B",
"G. c #A9AEA2",
"H. c #ADB3A6",
"J. c #B4B6A7",
"K. c #B4BBA6",
"L. c #B5BCAB",
"P. c #B9BCAC",
"I. c #BABDB2",
"U. c #B8BDB6",
"Y. c #C39E81",
"T. c #C4A58A",
"R. c #C2AC95",
"E. c #C3B39C",
"W. c #C7BBA6",
"Q. c #C0B9B0",
"!. c #BCC4AE",
"~. c #BCC3B3",
"^. c #BDC3BB",
"/. c #BEC8BD",
"(. c #CDC4AC",
"). c #C3C6B5",
"_. c #CDC7B6",
"`. c #C3CBB4",
"'. c #C1C5BC",
"]. c #C6CBBB",
"[. c #CBCDBC",
"{. c #D1C8B5",
"}. c #D2CDBB",
"|. c #CAD1BB",
" X c #D4D1BE",
".X c #BFCBC3",
"XX c #C7CAC3",
"oX c #CACEC1",
"OX c #CED1C4",
"+X c #C6D2CD",
"@X c #CAD3CD",
"#X c #D3D4C5",
"$X c #D7D7C5",
"%X c #D3D5C9",
"&X c #D5D9CB",
"*X c #DADCCC",
"=X c #CBD6D3",
"-X c #C9D7D6",
";X c #CDDADB",
":X c #D6D8D4",
">X c #DBDDD3",
",X c #DCDCDA",
"<X c #DDE2CE",
"1X c #DEE2D3",
"2X c #DFE1D9",
"3X c #E1E5D5",
"4X c #E3E6DA",
"5X c #E3E9DA",
"6X c #E4E8DA",
"7X c #E4E9DB",
"8X c #E8ECDE",
"9X c #D5DFE0",
"0X c #D6E2E3",
"qX c #DCE5E6",
"wX c #DEE8EA",
"eX c #E6E7E3",
"rX c #E8EBE3",
"tX c #EBEBE9",
/* pixels */
"o.o.@.&.%...%.....} X.| | ` o.|  . .&.*.@.@.*.*.*.;.;.y.p.f.k.g.k.T.T.T.T.C.l.f.p.k.s.a.$.$.&.` X.o.O.o.X.X.%.o.o.o.X.E ` |  . .",
"o.o.o.%...%...|  . .X. .`  .@.O.a.Y.C.T.R.W.W.W.{.{.}. X X$X*X*X*X1X<X<X*X*X&X$X$X$X X}._.W.W.E.R.l.s.+. .o.X.o.&.o._ `  .` X.X.",
"X.%.%.o.%.o... .o.$.y.g.C.T.J.(.}.$X$X*X*X<X3X3X3X4X6X6X5X4X6X5X6X6X6X6X5X6X6X6X5X5X3X3X1X1X<X&X$X|.E.e. .o.X.o.@.` W _ ` | O.` ",
"o.@.$.o.%.%...%.e.W.{.}.$X*X1X3X8X3X8X6X2X3X1X2X3X3X6X6X5X3X5X6X6X6X6X6X3X5X6X6X6X6X6X6X5X3X6X3X1X&X{.r. .| +.X.` ` ` _ | e.( U ",
"o.$.O.&.%.%.o.X.p.[.1X3X6X6X5X6X8X3X8X6X*X3X3X3X3X3X6X4X4X5X5X5X5X5X6X6X6X6X7X5X5X5X5X5X5X5X5X6X5X*XW.p.o.X.' E `  .| O.i.r.] - ",
"%.o...&.%.o. .X.p._.3X6X6X6X5X6X8X8X3X6X4X4X4X4X6X6X6X6X5X4X5X6X5X5X6X6X6X6X5X5X5X4X5X5X5X6X4X6X5X&XE.{ o.o._ _ @.X.e.z.o.%.&.X.",
"+.` @.&.o...X.r.Y.#X1X5X6X6X6X6X8X8X6X6X4X4X4X4X6X6X6X6X4X6X4X6X6X6X6X6X6X6X6X5X6X6X6X6X6X6X3X6X1X*X_.s.O.| ` X.s.X.&.&.X.+.%.%.",
"o.) &.&.%...&.i.R.&X*X>X1X3X3X3X4X3X$X3X3X4X8X4X4X3X6X3X3X6X5X3X6X6X6X7X6X3X3X&X1X4X3X3X1X1X1X>X*X*X#Xl. .} o.@.+.o. .%.%.+.%.%.",
"o.%.%.@.o.%.@.*.E.&X%X%X%X%X%X%X:XXXI.XXXXoXXXXX'.^.XXQ.'.^.^.'.'./.'.[.oXXXoXP.XX&X&X&X&X&X&X&X*X&X#XT.+. .X._ ` o.| ..o.%.%.+.",
"&.o.X.+...o.o.+.p.C.D.L.~.~.'.~.Z.J G H G G S M A A S A N M M A B B S N S D G G H K B.U.'.).).~.P.D.A.a.o. .` E `  .) +...o.%.&.",
") X.@.o.%.o.o.+.X.' { W.OXOX>X/.J 3 X 3 X X X   . X 3 X X X X X X o X X 3 X X X X 4 H U.,X#X#X_.l.O.{ +.| _  .` X. .) O...o.+.&.",
"' @.` X.i.)  . .]  .#.(.1X>X4X'.D X   3 3 X 3 3 3 6 w 3 q 3 3 3 7 3 7 3 3 3 3 3 . X A U.4X>X2X$Xj. .| _ ` _ } X.o.` )  ...o.%.%.",
"o.i.O.o.%. .E |  .) O.{.3X3X4XU.D X 3 3 7 7 p 8 w p d w p p t p p w p w p w q 7 o X A H.qX,X6X<Xj.' } ` E |  .o.o...E ..+. .+.+.",
"o.r.e.o.%. .E ` ` / O._.6X3X4XI.A   3 3 p w p w p a d p d p p p p p p w p t w p 3 3 e H.2X,X3X*XA.` ) W } _ ` o.X. ._ X.o. . .O.",
"&.z.$.E ..} R } ` _ { [.5X1X4XJ.A 3 3 8 p 8 p t t a d p p d t t p p p t p w w p 3 3 0 G.,X4X3X1XR.` ] R ` E X...o.} ` |  . . .| ",
"&.z.O.E ..) _ / ' _ { #X4X4XeXH.M 3 8 w p w p w p p d t p p t p p w a p a p q p q 3 4 G.:X8X3X3XE.` ` ) E |  . . ..._ | o. .X...",
"O.z.( : O.I ` R } R { *X3X6X4XG.e X 7 t p 8 p p p p d p p p p p w w d p p p q p q 3 4 Z.%XrX3X3XE.`  .R _ o.|  .`  .` X.o.| | X.",
"a.z._ - O.& & X.} Z =.*X6X3X>XS.0 o 7 p t 8 p p p a a t p p p p p w d p p p 3 p t 3 4 N.OXrX3X3X(.'  ._  . . . .} o.X.o.o.| W ` ",
"Y.*. .&.%.E U O.) U =.<X6X3X>XZ.0 3 7 p p 8 p p p a a t p p p p t w p p p p q p p 3 # m.oXrX1X3X{.' `  .` | ..| ..&.%.| ..| ` ` ",
"T.| U +. . .X.` Y < y.<X6X6X&XZ.4 3 8 p p 8 p p p a a t s V i p p w p p p p q p a 8 + n.'.>X*X1X[.#.` o. .|  .X.o.X.o.|  .o.| ` ",
"r.+.X. .R ) ` E = ( y.1X4X5X@XN.4 3 p d d d k z z z z g :.t.Z p t w p p p w 3 p p 8 3 n.oX2X2X3X[.#.] o._ |  .|  .o.%. ..... .) ",
"&.&.` ^ ] U  .< ; E h.1X3X4X%XN.9 7 z n c.k v.v.c.b.c.l >.t.F k p w p p p t w p p 8 3 H /.eX3X3X#X-._  . . .|  ...%.o.o... .X.| ",
"o.| = I ` Y X.E ( ; C.1X4X5X+XM.9 w c.v.v.k v.v.c.b.b.n b F n v.c d d p p p 3 p t w 3 S I.4X3X5X$Xf.; ] ` ` o.o...o.o.o. . .| o.",
"+._ , _ Y O.*.U = < C.3X1X4X.XM.9 p c.c.c.k v.v.b.c.b.c.b.b.v.v.c k c.k p p q w p q 3 A L.6X5X5X*Xk.I @.o. . .X.X.o...o.X. . .o.",
" ..._ Y o. .) , , ( A.<X].~.G.n.4 u >.>.,.:.,.n b.b.b.z v.b.v.v.c.d v.c k p 4 p t w 3 M H.2X5X1X*Xd.o.e.o. .E | ....|  .o.X.}  .",
" .| , ' ` ; I < ; Y A.1X%X^.H.n.9 2.7.7.q.7.2.n n c.n z v.b.v.v.c k v.v.v.c w t t w + u G.,X6X6X1XV.&.*.%..._ Y } X. . .+. .' ) ",
"o., ( +.& ; P : = ' D.1X1X1XU.n.4 6.8.8.8.0.2.v n n n z b.b.n n v.g v.v.v.n a a p w 3 0 G.:X8X,X*XD.&.&.@...` U E ]  . . .|  ._ ",
"| P  .< @ ;  .* ; ] D.3X1X2XU.J % 8.q.0.5.3.2.v n n z h n b.n n c k n c n n g x d w 3 0 Z.%X7X3X*XF.z.%.%.o.| _ : _ o.| | ` o. .",
"E Y  ., $ < o.: , ' E.1X3X3XU.H % 7.9.9.4.! Q v n n l l v.b.n n c d v.n c n g k n a 3 4 B.%X6X3X*XJ.e.*.%.o.X.Y : ` o.|  .o.o.O.",
"T E I & = Y E P I ' (.3X3X1XL.G # ! 4.4.~ L Q z n n l k n b.n c x s n c n c k k n l q # M.OX8X3X3XW.O.r.......R Y R %.X.| +.%...",
"U  .* I = o.` _ = O.(.3X3X1XH.F # W ~ ~ ! 3.Q k z z x g n n n n x s c c c c g g n l s + m.XX8X1X1X{.] r.%._ ..E P _ o.X.X.o.X.o.",
"E ` : U ' &. ._ , ) _.1X3X<XH.A 4 [ 5.L 3.5.Q g n z h h n b.b c x p c c c c k g n c s 4 <.'.8X3X3X X#.*. ._ _ U _ } ..X.....o.%.",
"| _ Y / | | T Y & ( {.3X3X>XS.N O Z 8.L 3.8.1 g v z h g n n z x x y v x x x j s v z s 4 <.~.rX3X3X Xy.@. .` T ) o. . .o.....o.o.",
"_ R U U _ / / P ; ( }.3X3X*XS.u 5 Z 8.6.7.5.Z g x z h f v n v x c y c x c x l s n x f O J ~.6X1X<X_.y.&. ..._ _ ..|  .o.X...o.%.",
") E Y | } T T P : { {.3X3X&XS.e 3 V 8.0.0.5.> g x z h g v n x x x y c x x x h s b n h 2 G U.4X2X1X#Xy.e. .o._ R  .|  ...o...o.o.",
"Y o.| ..R Y Y * < [ ].1X1X&XZ.0 O F :.w.1.Q m f z v h g x n x x x t x x c z g s v x d 2 D L.4X2X1X<Xh.X. ..._ Y }  .} ..o...o.o.",
"o.o.` _ Y P P : , Z #X>X3X#XB.0 5 j v j j N j l l x h f v x x x x t x x h x h y n x f + N H.4X3X1X<XR.| | _ ] E ) } o.} ....o.o.",
"@. . .) P - : P , Z $X>X>X#XN.9 O g z h f g h h l x g f h x h x h r h x g h h t v h s 3 M G.,X3X3X*XR.X.E | X.) Y ..o.} ..o.o.o.",
"| @. .Y : I P P I Z *X3X3XoXM.4 5 f l h s f x h h l g f h x h x h q h h g g h t c j g 2 u S.>X3X3X*XE.$.E | | Y ` o.%...} o.%.o.",
"` ` R Y P Y : P I =.*X<X>XXXm.4 O f h h f h h l l h f f x h h h j r h h f g j t c x s 2 0 S.OX#X#X<X(.@.) ] | W %.o...o.} o.o.o.",
"| _ R P : T ; E ' d.<X<X<X`.t.4 O f h h f h h n h h f f h h h h h t h h f f h r l h f O 0 S.).[.&X<X(.@.)  .| o.o.`  ... .| ..+.",
"| _ U : , Y U | ( j.<X<X1X`.<.O 5 r f h f f h v h h f f f h x x g t g g y f h y l h y 5 9 B.}.1X<X<X{.O.| _  .o...E W X.`  .+...",
"` T P : U T E _ Y j.<X<X<X~.<.O O r s f y h h c h g h y h f v x g r g g y f h r h g y O # m.XX5X<X<X}.y._ ) O.o..._ E &. . .....",
"_ Y & : U Y ) R X.h.<X<X*X~.J . 5 6 y h s f h v g h f y h h x x g q f g y y h r g h r 5 # <.).>X<X<X X#. .o.o. .o.R ' %. .......",
"Y P $ = U Y _ E X.V.<X<X<XP.J . O 5 r f s g h x f f f f h f h x f q f f r y h r g f q O O <.~.1X<X<X Xp... .|  . . .o.+.........",
"U ; $ , R E |  .X.D.<X<X*XK.D . 5 5 5 y y f h x f f f y g f h h f r f f r y f y s y 7 5 O H P.>X<X<X<Xk.` ` | ` ` | ..o... .....",
"U * & ) | } |  .X.D.<X<X$XH.V . O O 5 q 5 7 r y r r q q r r t t r 4 r r 2 6 r 9 8 q 5 O O Z L.&X<X<X Xx. ./  . . . .o.o...| o. .",
"P & * | ` _ _ _ ` E.&X<X#XH.V         O O o o o O O . . O O O o O   . o   . O . o O O   . V H.#X&X<X<XA.| T ..| ..+.+.....| .. .",
": : P _ Y ` W _ O.E.#X<X[.G.K N N M N S B S A A C S B N S A C A B N B N m M M M M M M M M J F.OX|.1X<XA._ ^ +.....+.o..... .o...",
"P : Y } | .. . .O.W.|.OX`.~./.U.~.^.^.^.'.^..X^.'.'.XX'.^.'.'.XXXX'.'.^.U.^.^.^.U.U.XXU.^.XXU.].|.|.|.K.' +.;.o...%.%... .| &.%.",
"T P _  .] y.g.l.C.}.&X&X>X>XeXeXrXeXrXrXtXtXtXtXtXtXeXtXtXtXtXrXtXtXtXtXeXtXtXtXeX@XoX2XtXtXeX,X>X&X*X$X{.W.T.$...%.+.....%.&.o.",
"| )  .` ] D.K.P.Q.`.].[.[.OXOXoXOXOXOX1X>XoX%X#X#X%X%X%X%X#X#X#XOX%X%X%X%X@X#X$X#X'.S.P.OXOXoX|.oX[.[.].'.).W.A.X. ...%.o.%...%.",
"_ ` ` ` ] V.F.~.`.`.`.`.`.`.`.`.|.|.`.|.|.`.`.`.`.].`.|.`.`.`.`.).`.`.`.`.`.|.`.].`.K.!.!.!.`.!.).~.!.!.!.K.J.V.| ....o.%.o.%.%.",
"o.| } ` ' h.J.).`.`.`.`.`.`.`.`.`.|.`.`.`.`.|.|.|.|.`.`.`.`.`.`.!.`.`.`.`.`.`.|._.).`.`.!.F.!.`.`.`.`.`.`.!.F.d.| %.....%.%.o.%.",
"` o.| ` y.H.~.~.`.`.`.`.`.`.`.`.`.`.`.!.`.|.`.|.|.|.`.`.`.`.`.`.`.`.`.`.`.`.`.`.`.`.`.`.`.!.!./.`.`.`.`.`.`.P.F.y...| ..o.%.%.o.",
"` } ' y.U.XXL.K.K.!.!.!.!.!.!.!.!.!.!.!.!.K.~.!.`.~.`.!.).!.`.!.!.!.!.`.!.`.`.!.`.`.!.`.`.!.`.~.).!.!.!.!.!.!..XP.j...} ..%.%.%.",
"_  .a.I.-X-XXX.X.X.XXX.X.X.X.X/././././.^.H./.~.~./.^.^.~.^.~.^.~.~.~.!.!.!.!.!.L.I.P.P.L.!.!.L.K.K.K.K.K.H.U.-X-X'.j. . ...%.%.",
"_ ;.D.-X;X;X;X;X;X;X;X;X;X;X;X;X;X;X;X;X;X-X;X;X;X;X-X-X-X-X-X;X-X=X=X=X-X-X+X+X-X-X=X+X+X+X+X+X+X+X+X+X+X+X-X9X;X;XXXg. . .%.%.",
" .C.;X0X0X0X0X0X0X0X0X0X0X0X0X0X0X0X0X0X0X0X0X0X0X0X0X0X0X0X0X0X0X0X0X0X0X0X0X0X0X0X0X0X0X0X0X0X0X0X0X0X0X9X0X0X0X0X0X_.u... .+.",
"$.XXwXwXwXwXwXwXwXwXwXwXwXwXwXwXwXwXwXwXwXwXwXwXwXwXwXwXwXwXwXwXwXwXwXwXwXwXwXwXwXwXwXeXqXwXwXwXwXqXwXwXwXwXwXwXwXwXwX0XW.$. . .",
"l.:X,X,X,X,X,X,X,X,X,X,X2X,X,X,X,X,X,X>X,X,X:X,X2X,X,X,X,X,X:X:X,X,X,X,X,X;X,X,X,X,X,X,X2X2X2X2X,X,X,X,X9X,X,X,X,X,X,X,X%Xx.}  .",
"O.f.f.;.g.x.g.f.g.f.p.f.k.f.k.f.f.l.g.g.f.-.=.u.k.u.l.u.u.u.-.u.=.-.x.f.y.y.g.l.g.x.x.l.Y.Y.T.Y.x.l.f.g.f.g.g.u.-.-.f.g.p.*. . .",
" .+./ ..%.o.+.o... ... ...+.o. ...o.+... .< U ' ) o.e. .] _ _ ` - X.z./ _ ^ +.i.&.%.*.i.i.z.i.i.e.&.O.X.+. . .} / ^  ... . . ...",
"} _ } +.o.%.+..... ..... .o... ...X.o..._ Y U E ] r.e. .) /  ._ / *.%.` / : &.z.&.&.&.i.i.&.z.r.r.e.%.| ..+. .} / / } ..} / .. ."
};
