/* XPM */
static char *bae3970658c64a7786e4bc777f184705fYPucAQnNQUgU1eX[] = {
/* columns rows colors chars-per-pixel */
"64 64 179 2 ",
"   c #3B2D23",
".  c #422E23",
"X  c #4D3626",
"o  c #523725",
"O  c #543A26",
"+  c #5A3B26",
"@  c #51372A",
"#  c #553A2A",
"$  c #5C3D2A",
"%  c #633F25",
"&  c #623E2A",
"*  c #5F402C",
"=  c #5F4230",
"-  c #624027",
";  c #64422C",
":  c #6B462D",
">  c #6E492F",
",  c #73492F",
"<  c #7A4D2F",
"1  c #7E502F",
"2  c #634432",
"3  c #6B4731",
"4  c #6D4A31",
"5  c #704733",
"6  c #744C32",
"7  c #7A4E33",
"8  c #704D39",
"9  c #745135",
"0  c #7D5135",
"q  c #76523A",
"w  c #7E5339",
"e  c #835435",
"r  c #895636",
"t  c #855837",
"y  c #8A5837",
"u  c #835539",
"i  c #895739",
"p  c #86593B",
"a  c #8C5B3B",
"s  c #925E3D",
"d  c #94613E",
"f  c #9A633F",
"g  c #845C41",
"h  c #8E5E40",
"j  c #945F40",
"k  c #8D6244",
"l  c #8A6749",
"z  c #8F6849",
"x  c #956242",
"c  c #9B6543",
"v  c #976947",
"b  c #9E6945",
"n  c #946749",
"m  c #9C6748",
"M  c #966A4B",
"N  c #9E6B4A",
"B  c #9D714F",
"V  c #9F7253",
"C  c #A16643",
"Z  c #A26A46",
"A  c #A46C4A",
"S  c #A96E4A",
"D  c #A6714C",
"F  c #AB724D",
"G  c #B0734E",
"H  c #A57351",
"J  c #AD7551",
"K  c #AE7854",
"L  c #AE7A55",
"P  c #AD7953",
"I  c #AA7958",
"U  c #AC795A",
"Y  c #AD7F5B",
"T  c #AD7C5B",
"R  c #B07450",
"E  c #B17551",
"W  c #B07650",
"Q  c #B07651",
"!  c #B07553",
"~  c #B17553",
"^  c #B17752",
"/  c #B37752",
"(  c #B27651",
")  c #B47552",
"_  c #B17652",
"`  c #B27852",
"'  c #B37953",
"]  c #B07853",
"[  c #B17954",
"{  c #B37954",
"}  c #B07A54",
"|  c #B27A55",
" . c #B27B54",
".. c #B37856",
"X. c #B37B56",
"o. c #B07857",
"O. c #B57B55",
"+. c #B47957",
"@. c #B57B56",
"#. c #B77B57",
"$. c #B37C55",
"%. c #B17D56",
"&. c #B27C56",
"*. c #B47C57",
"=. c #B37A55",
"-. c #B17D58",
";. c #B37D59",
":. c #B27C5A",
">. c #B47C59",
",. c #B57F59",
"<. c #B67F59",
"1. c #B47E5A",
"2. c #B37E5C",
"3. c #B77F5C",
"4. c #B57D59",
"5. c #B87E59",
"6. c #B97E5A",
"7. c #AD7E60",
"8. c #B27F60",
"9. c #AF815D",
"0. c #B58058",
"q. c #B78059",
"w. c #B7815B",
"e. c #B7825A",
"r. c #B6805C",
"t. c #B6815B",
"y. c #B9825B",
"u. c #B8805B",
"i. c #B9815C",
"p. c #BB815C",
"a. c #B9835D",
"s. c #B9835F",
"d. c #BB855F",
"f. c #BA865E",
"g. c #BA835D",
"h. c #AF8360",
"j. c #AC8161",
"k. c #B58561",
"l. c #B48461",
"z. c #B88260",
"x. c #BB8561",
"c. c #BD8761",
"v. c #BD8562",
"b. c #BE8663",
"n. c #BC8661",
"m. c #BA8863",
"M. c #BF8A62",
"N. c #BE8A63",
"B. c #BF8A68",
"V. c #BF8E6E",
"C. c #BD8E69",
"Z. c #BE906F",
"A. c #B8957A",
"S. c #C08661",
"D. c #C08863",
"F. c #C18B65",
"G. c #C08F67",
"H. c #C18C65",
"J. c #C38E69",
"K. c #C49166",
"L. c #C7926A",
"P. c #C6906A",
"I. c #C5926C",
"U. c #C8946D",
"Y. c #C5986F",
"T. c #C59573",
"R. c #C99570",
"E. c #CA9572",
"W. c #C69976",
"Q. c #C99974",
"!. c #D39F77",
"~. c #BD9780",
"^. c #C49F82",
"/. c #CAA284",
"(. c #CDA985",
"). c #C8A58A",
"_. c #CFAB8D",
"`. c #CCAB91",
"'. c #D5B79D",
/* pixels */
"F F J @.F F G S S N N A Z b F b S A ] @.P F { F S b b b Z A A Z N $.] $.F Z b c c P R D C D F c Z D J F F S F J H F D d C D N Z ",
"F F R R F R F Z S Z D A b A D c S R ] P K J F F S b b b C c Z A J F 0.0.S D N S ..%.@.F Z b -.A F D J F A J S D { D f N D f D D ",
"D R J F R J S A F S Z A b b d b R ,.g.,.z.N b D N S c Z b n H J D P 0.0.R P F ] #.@.L J S x F J A N J ] Z F S J J f C c b Z J b ",
"F I T F R G S F F S S A Z d x D @.d.c.y.H D f.T J N S c x J 0.D P 0.P 0.F F G O.%.P F D F b b J Z F P O.Z Z J A N N f b A 0.z t ",
"F L H ] / G D S A S D b Z b p t.x.y.K.I I L.,.N n Z x w J D v A r.F P J N A D P %.D F Z F F D F A J 2.2.F D b x b A C I c.0.N 5 ",
"] F S ] R F S S R Z b L m F J L.B.-.t.A M.F c x N k.I 9.f.D D J F P k.-.c O.-.] 0.J J P b L D F A 0.-.A D F c x I F r.B.F J ..H ",
"J c ] O.F F D 0.R Z F M.R n x.t.e.L f.J F N J m.b.J t.0.J D %.+.F a.g.%.A k.E.y.-.,.P J N J { P ] O.R R J C b D V.D ,.{ D R R R ",
"F n O.] G F ] g.D J #.O./ p B ,.F g.D c j.I.T.D.J F B.F D g.t.{ %.%.%.O.D N D.%.F F F D J D J %.f.] D @.A C J K P D D R G J ] R ",
"J R R J F F P G N r.F R N a g.a.S H j.).^.c.J.%.g.0.p.D ,.D.c.g.,.P +.f.t.H { N H g.J D S I J x.c.F S F J S S b b D Z S F J R R ",
"{ F D J S G F D C n A b a F ,.0.A A.'.).0.M.G.g.c.M.R D t.M.c.J.M.g.c.,.-.g.J I A H c.A D t.H g.{ Z N J F S b s Z S j K S S L { ",
"n D P F { S F F Z s x b R ] ] / l.`.D.,.#.g.f.-.,.R Z J g.c.g.D.G.c.c.g.L U.t.N B q T P S D S %.P b c J N x Z b D Z x H S S J @.",
"b F b H x.x S D A A C S D S D H `.I.c.{ B.L.g.O.,.{ F F g.6.5.G.J.M.x.G.N.J.%.A B a p g.P N P 0.H Z Z b c c b S D Z x S S F / F ",
"F m.H F ] A d Z A c x c a a d A.W.5.0.D.R.F.0.D @.g.R J @.R { g.c.c.g.c.D.c.{ J P Z 8 D D L y.T n b b b f b C F F S d S R S K J ",
"J f.-.F R S d c c s f e e c ~._.,.{ N.Y.G.a.S J { L G F @.@.O.,.g.5.5.y.g.g.c.,.F O.a x K c N.g Z b x c Z c b J S A c S F Z m J ",
"J I.T d S C d C b c a , r j._.] S z.L.J.M.L P G.,.-.O.g.5./ @.] ,.5.F R #.g.c.c.P 0.b t T N k p Z b b j b s D A D Z b Z A A S Z ",
"{ Q.H x S c x j c c p e H (.F f J G.G.N.g.F R.S.F J ,.,.@.F R F ! @.R F @.g.0.c.N.y.Z p 7.k q w Z c b c s Z S S A Z c N J A D A ",
"J T.k 7 H p c f x d u Z T F Z J k.g.I.g.0.W.E.P S S S D G G R L / ] G F #.O.0.y.G.f.p F Y 5 8 j b c A d b J b A b A C S F Z Z F ",
"r.Z.c 5 H = : F D p h x A J J K %.C.Q.g.m.C.D c b J G F R / R @.O.! R @.,.5.g.f.G.f.x J V d $ g c d A c Z A A A C S S F D C c c ",
"^.%.N { F c p F x p u a a.F P 0.B.Q.U.F S b t i D A f D F F +.O.,.{ { ! #.t.g.x.F.g.F J A d $ q Z s Z A Z Z S N S { J A S A N b ",
").N a K D Z D c a w i v f.D g.x.G.P.U f b i e C D x A A F D J @.g.,.#.@.J g.g.%.L.M.g.O.S Z w = p c b F A Z Z A J S J m A F Z f ",
"z.! D Z d x N f 4 a e 9.-.D f.x.x.g.x Z b e s F c e F D S d.,.6.c.p.g.#.P O.g.J C.T.g.O.@.S x 6 # n N D b A Z A S F F S S S D s ",
"{ / b h b p A w 6 d n %.b J t.%.a.D m J b p d A s t b q 8 !.c.5.,.6.0.#.O.t.0.S z.W.0.x.g.b c c 2 s c Z Z Z Z S F F G D D A D Z ",
"J Z 3 u b a A s a , n d x P { F J j.N Z c c c s , q y + 2 J ,.-.J N S J Z c @.D L T.M.N.M.n a c 3 A 8 A Z b F F D F F F A A A D ",
"J c w x s H -.p 4 0 d N c Z F J k.Y.p c b j s r & 9 y : - p y.P c b b a 5 t ,.t.L T.m.G.x.A t y 0 Z e I D S Z S S F S S S A S F ",
"Z S c a F A d 7 0 p c c p Z J #.p.0.x p j s s ; ; e < + ; C F F D Z a 0 i s r.m.,.L.M.N.6.0., q x 9 D ,.F S d Z S S N S S S b Z ",
"Z Z q N C 6 e u 6 t a f j m L R g.a.b 9 r a r : : : ; : u Z S Z c q , f b S N.c.y.L.G.g.-.S.8 p e 6 O.,.F S c i b S A S J S c n ",
"F w k J 2 q e 7 > s s s a b O.%.%.g.b 5 , 7 7 ; + : 7 e r F Z a e 7 s d b 0.C.g.x.G.U.,.g.0.6 u ; p y.O.L D b i d A N A A Z A c ",
"Z e A e   6 A 6 6 d t p A F 0.J / D.n e : < , o - , > 7 s F R c u p Z %.Z F C.M.g.D.E.g.,.J u u ; 4 S.R / F Z c < x F Z C b S A ",
"d y Z e o p F , 0 s a c J D F S O.M.H p 6 6 9 & ; ; : , y F G c e i f H H T W.c.g.J.P.f.%.x u 0 s # O.q.R F D s w Z D b S F S H ",
"s c u ; 3 h d t u a b Z F F D F O.B.{ u 0 , u & $ ; 6 $ : F F a r a b F -.9.L.c.H.J.P.D.D a a 5 s , c d.F Z S s i s F S Z K J S ",
"p Z 5 u 4 F b c 5 b Z c f S A S D g.g.c 6 s d ; & > , @ + J F a b c F { 0.U D.d.J.T.U.p.c s x : 6 x x f.R c S x r c F D F F S J ",
"d c 0 p v / S x 0 y b x c c Z S Z @.M.S y F b : & , : . o S F D b Z O.O.0.r.c.M.J.G.U.g.C t u h e p d %.A c c i c C S F S A F R ",
"Z c y d A C c a - w c s a a S Z c J G.%.Z c Z 7 : , +   * Z F S F m +.{ F z.-.g.U.K.J.,.A 7 6 p Z j c P Z Z s x J S A S S S S F ",
"c d r p c j j u 5 e b a e c c c d F 5.] b s C t 7 9 + . 9 b S b Z b { J J 0.J g.P.J.g.] C 0 t 9 H s b ] Z F c x S A S S J S F R ",
"c s s Z b j s 7 7 x s a y x x Z a S -.R Z J D 6 p p O - r Z D F F J J J L J { M.G.J.y.D a u m ; k D a @.Z J c s C A A A F S F R ",
"a F Z S s i r 7 0 0 6 s x d f b x s S M.O.g.s 7 c , & < s D F P J J ..+.K 5.5.{ M.N.O.c u h A w : F s J A S c s C A C S G S F F ",
"H F b b i e < 6 9 + p x s x Z b s i x %.K S j s c 5 6 s j D S R D A { 0.g.,.F ] g.5./ e w c A S p x D N N b b d x Z S A S S G F ",
"] Z A x r 6 e r 7 + a x p N A c i a s s c b i s s 7 t f c N F D v V H O.F c F R ] ] F < : p H K b d F D d Z D d a Z G Z A F F F ",
"Z J A a 7 e e r 7 O 6 c Z L Z A y y c a b F s j p r a c b b S n l M Z c s s S ] / S C d + a H D D b A P a Z D a c R G A A F G F ",
"Z Z d p 0 i 7 t 0 4 9 x N %.D F s s a a x Z c s s m Z c Z Z n n m x j f s c D F F b J 9 # x D F b c F F n A b d { S S F C S F F ",
"b c s e 7 s < x x a r a A F J D c s y j b f j s d f S b Z c n N j j x x c Z S F A s s 7 * Z / D D A b F j S b J F b C S N A S J ",
"S c p 7 7 s p b s j w p b b A J c j a s c s s j Z C b A b N b f a j j A b Z S S m c $ , a D $.D D S b A N x Z F Z c c S b Z F F ",
"b s e 7 t s s c p d 6 b s Z F 0.S s s b s s s j f A S C Z c c c j x x c c Z A Z s s ; # A Z J J S J Z b b x J J S c d { Z A S S ",
"x a : 7 r s c s b 9 x J c d x N K s j C s x j c C Z Z Z C b c C C c b j s C x s < < 0 n H c J R A F A s A S S A F s b { A D S S ",
"a e - 5 r s c f C p J H Z t 7 D I c h S C c j s Z D C S C b b c m m x j c s r e   a D O.D A b P A F S c S A Z Z A C F R S F S A ",
"y 7 @ 0 s s b A Z Z S Z Z 0 p A Z A N K F j c f f C S C b b Z b j j x j s r 7 & # D D ] F Z b F S D S S C b Z N Z A A F S A S S ",
"r : $ x Z Z Z Z c Z Z b c t x d s { @.A L S Z C C C C A Z A N b x j c j c e o 5 c ] A R A Z J G F G S S A j S m A A S F S C S A ",
"r : > A b c c c c S S A d e c u a ,.J x -.t.Z b C C f f c Z Z c x j j c s : X b F J F G c b F F A ] D b Z a F A F F R F S A S A ",
"7 7 r s a b c c A S C G i u J j x K S f I d.F b c d a C d C f f p s d j s ; 6 R J S J D a c H D x P Z A c a J S Z J F F A S F S ",
"7 e a b Z S Z A Z Z S G j v J N j b f h %.P D b d c f D x p f p t c C s 0 q D J J F Z D b s h D x F F D t D g.F S R R S A C @.R ",
"a t c Z f C A S S S S S n N R Z N p Z c Z G a N c J d d c p d t c S C s a a b S A S D A S N 7 p H s ] Z d F @.S S J F S S G @.S ",
"A x Z b c c S S A S F S Z S ! S b j b b b S w b F c t Z d f b A C Z f s e s Z S A Z J b S F e w D e D S F b G S S S F F F / F F ",
"b b b b f f D A S F F F S D S S C C c s S Z f C Z c D G y x W f F f s p 9 Z Z A A S ..J Z %.b 7 a a b D { S S A Z S S G R F G J ",
"J Z C b f N J S F F G G F D F S A A C i c A Z c d b Z Z f c b b C a y y x S b S b A #...F R ! p e s b Z H S F A C F S S R ] F R ",
"b F A f f Z F F G W F D F F F S A A Z b d Z c j N Z C b d f d f c s s r S A b Z Z K #.{ @.D 5.c 7 c c A c J F Z A S A S F ] / F ",
"c C x D Z D W F W G S C S F F S Z S Z C n b c b c c Z p b b c c s d s c S x D @.J { L { { S 0.H < s d S b R Z Z F S C A F G ] ] ",
"b C J S S F G S ] F S G S G G C S A S C j C j j f Z f d A c s c x c b f a b P F J { ,...F ] @.{ p e b Z F D b A G S Z S Z S / G ",
"b S S A S G F G G D S S Z S S A S F S S s b j s b Z b b c i c s s d c s s F R F J { 5.@.{ %.5.,.S 6 c Z S S b N W b f Z Z S W W ",
"S S A C A F F G S A A S S S S A A S D R a e b m b c b C b 0 m b y c C Z b S F S J R -.{ y.g.,.#.{ a c b Z D d c G b f S A S S F ",
"b b Z C Z S F D S Z Z S G S A S S D c F Z e u c x b Z Z b d s c j f C Z c f F F { { @.J g.G.,.,.0.A c c D F c A D Z D S A F Z Z ",
"b C A c A L F S G C C S G S A Z S G Z F Z s e a S D D A b c a s j c c b f c F R %.@.R J 0.G.S.,.,.! C S J S S N C C C S C S A A ",
"b A Z C F / S S F A A C F S S C S F S F A a e x J x $.C c c r x < p #.D s d F / R { { { 0.g.B.y.,.R N S A A S x s f A S A S S S ",
"S S c Z G F S A S S A C A G S A S D F S Z e u f s D O.A b d d c 7 A p.c d r F p.R R ,.g.c.N.g.c.y./ D A S S S c s r A S Z Z A Z ",
"Z C C S F / G S S S S S A S S S S F S S c i a s N f.O.S x x A c s +.! b x e U I.{ { @.g.M.-.Y.g.y.q.W Z F S A b c a c G C f A A "
};
