/* XPM */
static char *_787021491a9466ffd2c35c049231f453kDUBzoiWcfq73Mb[] = {
/* columns rows colors chars-per-pixel */
"64 64 222 2 ",
"   c #1E1716",
".  c #1F1919",
"X  c #221B1A",
"o  c #291F1B",
"O  c #2D211D",
"+  c #34251C",
"@  c #3D2A1D",
"#  c #2B2423",
"$  c #2E2827",
"%  c #322723",
"&  c #342924",
"*  c #3B2B23",
"=  c #342C2A",
"-  c #3B2F29",
";  c #3E312C",
":  c #3F3734",
">  c #432C1D",
",  c #492F1F",
"<  c #4C311E",
"1  c #52351E",
"2  c #58371E",
"3  c #5B391F",
"4  c #422D21",
"5  c #443125",
"6  c #4C3323",
"7  c #43352D",
"8  c #4D3629",
"9  c #4C382D",
"0  c #533620",
"q  c #583722",
"w  c #5C3A22",
"e  c #533A2B",
"r  c #543828",
"t  c #5C3E2C",
"y  c #4C3E35",
"u  c #433D3C",
"i  c #593E30",
"p  c #633D23",
"a  c #643F28",
"s  c #574337",
"d  c #5D4333",
"f  c #58453B",
"g  c #664027",
"h  c #6C4125",
"j  c #64422C",
"k  c #6C452B",
"l  c #744526",
"z  c #754627",
"x  c #7B4926",
"c  c #724A2F",
"v  c #7C4929",
"b  c #634533",
"n  c #664937",
"m  c #6A4936",
"M  c #6C4934",
"N  c #634A3B",
"B  c #704733",
"V  c #754D33",
"C  c #7A4E33",
"Z  c #6A503F",
"A  c #7D5135",
"S  c #74523B",
"D  c #7B533B",
"F  c #494443",
"G  c #4F4A49",
"H  c #594D48",
"J  c #5A504C",
"K  c #5A5554",
"L  c #644E42",
"P  c #695344",
"I  c #64544B",
"U  c #6B584D",
"Y  c #775A48",
"T  c #645A56",
"R  c #6B5C53",
"E  c #645D5B",
"W  c #6E5F58",
"Q  c #745E50",
"!  c #6E625C",
"~  c #786559",
"^  c #6B6563",
"/  c #796C65",
"(  c #7B716D",
")  c #7B7776",
"_  c #844C26",
"`  c #8A4F27",
"'  c #844D29",
"]  c #894F28",
"[  c #8C512A",
"{  c #905127",
"}  c #94552A",
"|  c #99572A",
" . c #9C5A2C",
".. c #835435",
"X. c #895636",
"o. c #855837",
"O. c #8B5837",
"+. c #83553A",
"@. c #8A5738",
"#. c #85593C",
"$. c #8C5B3C",
"%. c #935E3D",
"&. c #995E3E",
"*. c #A15C2D",
"=. c #A15E31",
"-. c #8E603F",
";. c #94613E",
":. c #9A623E",
">. c #A2643A",
",. c #835B42",
"<. c #8B5D41",
"1. c #945F40",
"2. c #8E6244",
"3. c #8B6449",
"4. c #956342",
"5. c #9B6543",
"6. c #956846",
"7. c #9E6945",
"8. c #97684A",
"9. c #9D6B4A",
"0. c #866C5A",
"q. c #9A6E50",
"w. c #97745D",
"e. c #A26743",
"r. c #A26B46",
"t. c #A46D49",
"y. c #A96E4A",
"u. c #A6714C",
"i. c #AB724D",
"p. c #B0744E",
"a. c #A57352",
"s. c #AD7551",
"d. c #AD7954",
"f. c #A4795C",
"g. c #AC7B5A",
"h. c #B17651",
"j. c #B27853",
"k. c #B17A55",
"l. c #B37A54",
"z. c #B37C56",
"x. c #B47D59",
"c. c #B57E59",
"v. c #B87E59",
"b. c #826F62",
"n. c #897365",
"m. c #977B67",
"M. c #827976",
"N. c #AA7E63",
"B. c #B27F60",
"V. c #B6815C",
"C. c #B9825D",
"Z. c #BA845D",
"A. c #958174",
"S. c #998377",
"D. c #A88369",
"F. c #BC8661",
"G. c #B88866",
"H. c #BE8A64",
"J. c #BF916F",
"K. c #A98974",
"L. c #B58D73",
"P. c #AF907B",
"I. c #B59279",
"U. c #BC957A",
"Y. c #C18C65",
"T. c #C18E6A",
"R. c #C5926B",
"E. c #C8976F",
"W. c #C69777",
"Q. c #C2997E",
"!. c #848080",
"~. c #8B8684",
"^. c #8F8A8A",
"/. c #97908D",
"(. c #999493",
"). c #9D9A9A",
"_. c #A59389",
"`. c #B79B89",
"'. c #A59C99",
"]. c #A5A19F",
"[. c #B0A096",
"{. c #A9A7A6",
"}. c #B6ACA8",
"|. c #B2AEAC",
" X c #AFAFB2",
".X c #B6B4B4",
"XX c #BDBABA",
"oX c #C49D81",
"OX c #CCA285",
"+X c #CAA589",
"@X c #D0A689",
"#X c #D6AA8B",
"$X c #DCAE8E",
"%X c #C5A997",
"&X c #DEB090",
"*X c #D0B099",
"=X c #D4B499",
"-X c #E1B292",
";X c #CBB4A4",
":X c #D3BBAC",
">X c #C5BDB8",
",X c #C8C3BF",
"<X c #D6C3B5",
"1X c #C6C3C2",
"2X c #C8C5C5",
"3X c #CCCCCC",
"4X c #D7D1CE",
"5X c #CECFD1",
"6X c #D5D5D5",
"7X c #D9D6D5",
"8X c #DEDBDB",
"9X c #E2CFC2",
"0X c #E2D3CA",
"qX c #E3DCD7",
"wX c #E8E2DE",
"eX c #DEE0E0",
"rX c #E4E4E4",
"tX c #E8E7E7",
"yX c #EBEBEB",
"uX c #F2F0EE",
"iX c #F4F4F4",
"pX c #FCFCFC",
/* pixels */
"i.i.d.l.y.i.h.y.r.t.u.r.r.7.i.r.t.t.l.z.s.s.z.i.t.r.7.5.7.r.u.r.9.z.h.d.i.r.r.6.5.j.h.i.7.u.u.5.r.u.s.i.i.i.i.s.i.u.u.:.9.u.9.t.",
"i.i.i.h.s.p.y.r.t.r.u.r.7.r.i.5.y.p.j.d.d.d.i.u.u.r.7.r.e.5.r.t.s.i.V.C.u.i.r.t.z.z.l.i.r.5.V.t.i.u.j.i.t.i.i.i.z.i.:.9.t.:.i.u.",
"u.h.h.i.h.s.y.y.i.i.t.t.7.5.;.7.h.c.C.c.C.7.7.u.9.t.5.r.7.6.a.s.u.d.C.z.h.d.p.j.z.z.l.i.y.5.s.s.t.7.s.j.r.i.y.i.s.:.e.5.7.e.i.9.",
"i.d.g.s.h.h.y.y.i.y.t.u.t.;.4.u.z.F.F.C.a.a.C.c.s.t.t.5.5.i.C.u.d.z.d.C.i.i.i.z.z.l.u.u.s.5.7.u.r.i.d.z.r.r.a.t.9.9.:.5.t.V.3.o.",
"i.g.a.j.j.p.i.i.y.t.i.>.t.9.O.V.F.C.Y.d.g.R.c.t.6.t.6.A s.t.5.u.V.s.d.s.r.t.t.d.d.u.i.r.s.i.u.u.t.d.x.x.a.i.7.6.7.r.9.d.Z.V.9.M ",
"h.i.y.j.p.s.t.t.h.9.9.j.5.u.s.R.Y.c.C.t.Y.y.5.;.9.G.a.V.C.a.8.u.9.q.V.d.6.l.d.j.V.s.d.d.6.d.i.p.r.V.x.t.i.t.:.5.d.u.G.H.h.h.j.u.",
"s.5.d.z.i.p.t.c.j.r.u.Y.d.6.F.V.C.g.C.9.7.8.a.Y.F.a.c.s.2.S V M b M M M M ,.D.d.z.c.s.s.9.i.z.i.j.z.h.s.a.r.7.u.J.u.z.j.i.j.h.h.",
"i.6.z.j.h.y.l.C.u.i.v.j.j.$.q.z.u.V.M 5 7 N w.F.i.6.Y j j z ' [ } | } [ ' z j j D 6.u.i.s.u.a.s.V.h.i.j.y.e.i.g.i.i.i.i.i.i.h.d.",
"s.i.j.i.i.s.d.p.t.V.i.j.9.$.C.C.t.N X X X X & L D j z } *.*.=.*.*.*.*.*.*.*.*.} k j D 9.4.Y d b Y 4.t.i.s.t.u.5.7.i.r.t.i.h.j.s.",
"z.i.i.s.i.i.i.i.r.6.t.7.$.i.c.c.$.% X o o o X X @ [ *.*.*.*.*.*. .*.*.*.*.*.*.*.*.} w 7 & X X X X * Y s.i.t.7.;.7.u.4.d.t.y.h.z.",
"6.t.d.i.j.i.p.i.5.$.5.5.h.j.j.j.P $ F W N 9 X X O k *.*.*.*.*. .*.*.*.*.*.*.*.*. .| 3 X X X O X X X % 4.r.5.r.r.u.t.4.a.y.i.i.z.",
"9.s.9.u.C.4.t.t.t.t.t.t.y.u.u.a.b.(.6X9XR.3.& X . > | *.*.*.*.*.*.*.*.*.*.*.*.*.| 3 X O > + % & O o X t 5.5.5.i.i.7.4.y.y.i.h.p.",
"i.F.a.i.j.t.;.r.t.:.6.5.$.;.;.%X0X9X*XQ.D.t v @ X o z | *.*.*.*.*.*.*.*.*.*.*.} q o + h } z d 8.A b * * $.r.r.i.i.t.;.i.s.y.s.j.",
"i.F.c.i.h.t.-.7.5.&.&...A :.U.=XoXc.H.F.b ' *.z O . @ ` *.*.*.*.*.*.*.*.*. .[ q o 4 ' *.*. .r M 9.5.$.e #.4.5.h.i.t.5.t.i.r.t.a.",
"s.R.g.;.y.e.;.5.5.5.O.c X.D.@Xd.t.G.Y.Y h *.*. .w o X < } *.*.*.*.*.*.*.*.[ < X @ [ *.*. .*.x 4 4.5.7.$.<.%.i.y.y.r.7.r.t.t.y.r.",
"l.E.a.4.y.:.5.4.7.5.O...a.+Xs.:.l.T.3.t  .*.*.{ M G # o w  . .*.*. .*. .v @ X O v  .*.*.=.*.} 6 M 5.t.4.;.t.r.t.r.y.5.9.s.t.t.t.",
"a.W.2.C a.o.5.:.5.%.+.r.g.i.r.d.W._.d } *. .[ L  XeX) $ O p [ *.*.] ` w + X F T V } *.*.*.*.*.h 4 #.r.1.5.i.7.t.7.t.7.u.i.e.9.i.",
"c.J.5.V a.d k i.t.#.$.6.t.s.i.W.<X! _ *.*.} N >XpXpXiX).: o z *. .q @ O # K 2XyX).n | *.*.*.*.] > t r.5.t.t.t.t.e.i.i.i.i.7.7.:.",
"oXx.9.d.i.6.#.s.6.+.+.$.Z.d.G.0XA.k *.*. .j {.pXpXpXpXpX).O w } x + = K (.rXpXpXpX^.c *.*.*.*. .3 * <.t.r.t.t.9.y.l.s.r.i.r.7.7.",
"+Xt.$.s.t.r.u.5.$.D o.6.Z.g.<X].d } *.*.` T yXpXpXyX]..X.Xr < < < , ~.8X8XiXpXpXpX8Xf | *.*.*.*.z > b y.t.r.r.t.i.i.i.r.r.i.t.:.",
"C.d.u.r.%.;.9.:.M $...V.G.:X1XN } *.*.*.h '.pXpXpX(.O : (.j | ` [ b {.! F  XpXpXpXiX^ ] *.*.*.*.` 1 5 7.5.9.t.t.t.i.i.t.y.i.t.;.",
"z.j.e.$.9.$.t.A V %.4.V.*X7XR ' *.*.*. .j 5XpXpXiXK   $ A.j *.*.| I !..   G tXpXpXiX) x *.*.*.*.| p @ Z a.t.r.t.i.s.p.i.i.r.i.7.",
"s.r.M +.7.$.t.4.%.c 4.`.rXM.z *.*.*.*.| L rXpXpXyXG . G ^.k *.*.] / ) . X = 6XpXpXiX) h *.*.*.*.*.h < 9 `.f.u.i.i.i.i.i.t.r.t.u.",
"s.5.D 5.$.a.l.#.B +.D.qX'.a  .*.*.*.*.{ T iXpXpXpX).K {.( v *.*._ M.{.$ X u eXpXpXrX( z *.*.*.*.*._ 1 > ) :Xd.u.y.i.y.i.i.t.t.i.",
"t.y.5.$.i.t.4.C A w.qX>Xb } *.*.*.*.*.{ ! yXpXpXpXiXuX3Xf } *.*.' ( yX) G ).pXpXpX3X^ z *.*.*.*.*.{ 2 < 7 |.;Xd.y.t.t.t.y.t.t.t.",
"e.r.D 9.5.V ..+.V ;X6XP ] *.*.*.*.*.*.} I tXpXpXpXpXyX) g  .*.*.} U yXiXrXiXpXpXrX XK v *.*.*.*.*.| 3 1 > J qX`.9.i.r.y.s.i.7.4.",
"i.+.2.s.b A ..C M <X( l *.*.*.*.*.*.*.*.j |.iXpXiXrX/.s } *.*.*. .j |.iXpXpXpXyX.X).f } *.*.*.*.*.*.h 1 1 @ ~.wXD.9.t.r.t.t.t.4.",
"r.A t.A & V y.c Y _.j *.*.*.*.*.*.>.e.*.[ N ].,X|./ d ' *.*.*.*.*.` Z XXiXiXeX.X{.^ j *.*.*.*.*.*.*.x 1 1 < 7 >X:X9.a.r.5.r.t.t.",
";.O.r...6 ,.i.V w.R ' *.*.*.*.*.>.I.].$. .} z k k x | *.*.*.*.*.*.*.` n M./.^.M.I j | *.*.*.*.*.*.*.` 1 1 1 > T 4XN.i.r.t.s.i.a.",
"%.4.#.j k <.&.X.n.b *.*.*.*.*.*.f.1X5X0. . .*.*.*.*.*.*.*.*.*.*.*.*.*. ._ h j k _ *.*. .>.>.*.*.*.*.{ 1 1 1 < > b.4.i.u.t.s.p.y.",
"#.r.V o.V i.5.5.Q k *.*.*.*.*.=.`.eXtX'.X. . .}  .|  . . . . . .*.*.*.*.*.*.*.*.*.*. .;.'.K.*.*.*.*.{ 2 1 1 1 , * 1.i.i.i.i.i.i.",
";.5.C o.6.z.y.8.f ' *.*.*.*.*.>.>XrXrX1XD h h p w 3 q q p g z z _ [ { |  . . .*.*.*.} S.6X}.>.*.*.*.| 3 1 1 1 1 @ +.y.i.t.r.i.h.",
"r.5.$.%.r.5.5.$.9 ` *.*.*.*.*.i.2X>X[.m.V p p p z z a a p w q 0 < < 6 0 q a x ` } } #.,XyX3Xf.*.*.*.} 3 1 1 1 1 @ C t.y.y.y.i.i.",
"5.1.X.O.5.1.5.o.9 ' *.*.*.*.*.:.a.%.| } *.*.*.*.*.*.*.*.*.*.*. .| } ] ' l p q 1 1 3 b.7XrXeXP. .*.*.| 3 1 1 1 < > c r.i.i.y.i.i.",
"4.;.$.r.5.4.%.C e x *.*.*.*.*. .*.*.*.*.*.*.*.*.*.*.*.*.*.*.*.*.*.*.*.*.*.*.*.| ` x D w._.,X`.=.*.*.| 3 1 1 1 1 @ S r.i.i.y.i.p.",
"$.i.r.y.&.$.$.c k w | *.*.*.*.*.*.*.*.*.*.*.*.*.*.*.*.*.*.*.*.*.*.*.*.*.*.*.*.*.*.*.*. .} :.5.| *.*.{ 2 1 1 1 < @ $.r.t.y.i.i.i.",
"u.i.7.5.$...C C V 4 z  .*.*.*.*.*.*.*.*.*.*.*.*.*.*.*.*.*.*.*.*.*.*.*.*.*.*.*.*. .*.*.*.*.*.*.*.*.*._ 1 1 1 1 < 5 5.i.r.y.y.p.i.",
"l.9.t.5.X.V ....S 1 r z  .*.*.*.*.*.*.*.*.*.*.*.*.*.*.*.*.*.*. .*.*.*.*.*.*.*.*.*.*.*.*.*.*.*.*.*.*.z 1 1 1 1 @ j r.i.y.y.i.i.i.",
"r.s.t.$.C A ..X.A r k d h [  . .*.*.*.*.*.*.*.*.*.*.*.*.*.*.*.*.*.*.*.*.*.*.*.*.*.*.*.*.*.*.*.*.*. .p 1 1 1 > 6 6.h.p.r.r.i.i.p.",
"7.r.%.$.A O.A ..A M V 4.S j k [ |  .*.*.*.*.*.*.*.*.*.*.*.*.*.*.*.*.*.*.*.*.*.*.*.*.*.*.*.*.*.*.*.x 1 1 < > 0 $.j.y.y.i.e.y.i.i.",
"r.5.%...C $.c 6.4.$.o.$.t.9.,.b w a c _ } } }  .|  . . .*. .*.*. .*.*.*. .*.*. .*.*.*.*.*.*.*. .[ q < < 4 b 4.i.y.5.t.t.7.y.t.s.",
"t.5.$.C A %.O.e.$.;.+.O.7.5.7.8.+.M a a a e 6 d b a j k k z v v ' ' [ [ } |  . . . . . .| | | ] w > 5 t #.4.t.a.r.5.5.y.r.t.i.i.",
"5.%...C X.%.;.5.O.;.c 6.#.A d 9 8 5 r b A b L m.m.m.n.0.0.Q Q U U L L N d d j j g k w w j t j d b A $.9.5.5.d.i.i.e.1.l.e.r.y.y.",
"4.$.k C X.$.5.%.5.D 4.2.8 @ < < 1 < < > 4 & Q I.@X@XoXoX`.W.U.U.I.L.K.K.K.D.A.Q 8 j k ,.8.$.u.i.t.s.t.%.t.i.t.t.i.%.5.l.y.a.y.y.",
"$...t V X.$.5.5.7.#.#.* < 1 1 1 1 0 0 0 q > 4 U U.&X&X&X&X$X$X$X#X#X#X#X#X#X#XL.- #.u.z.i.r.r.d.t.i.t.5.y.y.7.t.t.e.s.h.y.i.y.y.",
"X.v 8 ..%.%.7.t.r.6.8 < 0 1 q 1 q 0 0 0 0 0 1 4 P oX&X&X&X&X&X&X-X-X$X-X$X-X-XQ.9 u.u.j.i.r.r.i.i.y.y.i.r.7.t.7.9.t.t.i.y.r.i.y.",
"@.k t ;.r.e.9.t.:.-.* 1 6 < 1 1 1 0 1 1 1 0 0 < & ~ OX&X&X&X&X&X$X-X$X&X-X&X-XQ.d i.u.h.r.9.i.i.i.s.t.i.r.1.y.e.t.r.y.i.y.t.y.r.",
"o.k c r.9.5.5.5.6.-.@ > ; : ; , 0 1 q 1 0 0 0 1 o = N.$X&X&X&X&X-X$X-X$X$X&X$XU.s q.d.h.5.7.i.i.t.j.y.r.e.%.a.t.y.s.s.y.y.r.y.y.",
"C C @.4.$.7.5.7.r.5.4 & W ~ I 7 4 0 0 1 1 1 0 * X   H oX&X&X&X&X&X&X&X#X&X#XP.f # f K.d.%.4.u.u.4.d.r.t.5.$.i.y.r.s.p.i.r.y.i.y.",
"C A $.7.r.y.r.r.t.t.i - ~ ~ ~ W y + > 4 > * O X X X $ N.$X$X&X$X&X$X#XOXK.Q = . X X = n $.%.4.8.;.i.i.i.X.u.C.i.y.h.p.i.r.r.z.h.",
"$...4.r.5.e.y.t.t.y.4.9 U ~ 0.! i + X X X X   . . X X U U.oXQ.I.D.m.Q s + .     X O @ @ e ,.A 2.a.%.h.r.;.d.v.y.i.j.i.y.y.p.v.y.",
"t.5.t.t.:.5.y.y.r.y.s.<.y U ~ s + + + X X X X . . X X T J - - % O . .   . X O O > < 1 1 > e c D a.A i.t.i.5.j.y.t.r.i.i.i.h.i.p.",
"5.7.7.5.5.:.u.t.r.i.i.i.<.i H 7 + + + O X X X . X . # 1X~..   X . . . . . O @ < 1 1 w 1 1 @ M V O.$.7.u.l.t.i.r.e.i.y.p.h.i.h.p.",
"i.r.r.r.:.7.s.i.i.s.p.p.a.7.M - % + + @ o X . . . . F tX>X= X X . . . X O > 1 1 1 1 1 1 0 < d +...&.7.t.a.y.i.r.e.i.y.y.s.h.s.h.",
"9.i.r.:.7.t.i.i.p.j.i.i.i.y.L.}.E 4 + + + o . X . X ^.uX`.B % X . X X . + 1 0 0 1 0 1 q 0 < t 4.C 6.:.t.:.i.s.r.t.i.r.y.i.j.h.i.",
"7.e.6.r.7.t.i.i.p.h.y.r.y.i.G.:XqX{.T 7 % O X X X K eX%Xe.1.V & O . . X + 3 0 1 0 1 1 1 1 , s u.v 4.;.t.r.l.r.r.i.t.r.r.i.h.h.p.",
"5.r.s.y.t.p.p.y.h.i.y.y.y.y.i.y.L.*XoXS.^ F : - R 3X:X9.t.e.%.#.9 O X . + 1 0 0 0 0 0 1 0 > n z.$.A 7.r.i.a.7.r.h.y.r.y.r.y.h.i.",
"5.s.y.r.i.s.i.p.i.i.y.y.y.p.y.r.r.i.s.s.N.N.q.<.D.+Xu.7.5.$.1.1.$.M 5 o + 6 0 0 1 q 1 0 0 * 2.z.t.C 5.t.y.t.e.5.h.e.:.r.y.y.j.h.",
"t.y.r.e.r.i.p.i.y.r.y.y.y.y.y.y.t.y.t.h.$...e.5.t.5.7.r.7.A 7.e.o.5.;.V t 5 * 4 < < < 6 5 S d.V.l.$.5.5.t.t.5.5.i.7.:.u.y.y.u.i.",
"r.r.t.e.e.i.i.i.i.r.r.y.i.y.y.y.y.i.5.i.r...#.5.;.9.r.r.5.4.%.4.4.5.7.r.5.4.4.D S n n S q.H.V.V.V.t.5.6.i.i.6.t.i.r.u.t.r.i.r.r.",
"7.7.r.e.t.s.i.r.y.t.e.y.i.y.y.r.y.p.r.i.t.%...O.t.i.i.r.5.5.$.%.1.1.5.5.5.5.i.j.l.l.j.i.Z.Y.F.C.z.h.7.r.s.i.t.t.5.r.e.y.r.y.r.t.",
"5.y.r.5.i.z.i.y.y.t.t.e.y.y.y.y.t.s.i.i.r.%...4.s.5.z.5.5.5.$.%.C <.v.t.;.%.i.h.h.j.j.l.V.Z.H.Z.v.h.r.y.y.r.t.5.%.:.y.y.y.y.y.r.",
"y.y.e.t.h.y.y.y.y.y.y.r.y.i.y.r.y.y.i.y.r.A #.4.%.u.c.r.5.;.:.5.C t.C.5.4.@.y.F.j.h.V.Z.Z.H.Z.Z.V.j.i.r.y.t.r.e.$.X.t.y.r.r.y.r.",
"t.5.e.y.i.h.h.y.y.y.y.y.r.i.y.y.y.i.y.y.5.$.O.%.t.C.v.y.5.4.r.5.4.l.j.5.5.A c.Y.l.l.l.Z.Z.V.R.Z.C.V.j.r.s.s.r.5.5.$.5.i.e.:.y.y."
};
