/* XPM */
static char *_fa0b0729e6f47588cc733fcb1a67ba93u8FBv0gT9fa5JLj[] = {
/* columns rows colors chars-per-pixel */
"64 64 207 2 ",
"   c #19191A",
".  c #2B2914",
"X  c #34331A",
"o  c #262627",
"O  c #2B2B2C",
"+  c #3A2C23",
"@  c #373A26",
"#  c #2F2F30",
"$  c #363637",
"%  c #3C3C3D",
"&  c #4A3426",
"*  c #4E3629",
"=  c #583B28",
"-  c #493D33",
";  c #633F25",
":  c #3D4C1D",
">  c #3F531E",
",  c #3B4B24",
"<  c #3C482B",
"1  c #3F5225",
"2  c #42511E",
"3  c #474A24",
"4  c #59472A",
"5  c #445529",
"6  c #545827",
"7  c #454A36",
"8  c #454C3C",
"9  c #594538",
"0  c #4C5838",
"q  c #535638",
"w  c #66462D",
"e  c #6C462E",
"r  c #724A2F",
"t  c #784D2F",
"y  c #675E2E",
"u  c #6D4A32",
"i  c #684937",
"p  c #744D33",
"a  c #714B37",
"s  c #7A4E33",
"d  c #6B5433",
"f  c #6E5B33",
"g  c #6A5A3B",
"h  c #7D5235",
"j  c #755936",
"k  c #7C543B",
"l  c #715C3A",
"z  c #5B7228",
"x  c #55673A",
"c  c #66652E",
"v  c #6E6533",
"b  c #776639",
"n  c #737037",
"m  c #3F3E40",
"M  c #403F41",
"N  c #424244",
"B  c #494C47",
"V  c #474749",
"C  c #4B4B4C",
"Z  c #574E49",
"A  c #4E5446",
"S  c #555748",
"D  c #4E4E50",
"F  c #535355",
"G  c #595857",
"H  c #5B5A5C",
"J  c #614F44",
"K  c #6B5343",
"L  c #675549",
"P  c #755643",
"I  c #7B5A44",
"U  c #765A48",
"Y  c #675D58",
"T  c #765E50",
"R  c #576443",
"E  c #5C7041",
"W  c #5E6554",
"Q  c #656459",
"!  c #766254",
"~  c #7C6354",
"^  c #74655D",
"/  c #7B665B",
"(  c #7D685F",
")  c #697757",
"_  c #5F5F61",
"`  c #636365",
"'  c #676867",
"]  c #6C6D65",
"[  c #666669",
"{  c #6A6A6C",
"}  c #736A65",
"|  c #736A66",
" . c #7C6C66",
".. c #7C6F6A",
"X. c #6D7268",
"o. c #7D726D",
"O. c #727969",
"+. c #6E6E70",
"@. c #706F73",
"#. c #737274",
"$. c #797676",
"%. c #767679",
"&. c #7B7B7C",
"*. c #845536",
"=. c #895636",
"-. c #8A5937",
";. c #84553A",
":. c #885738",
">. c #84593C",
",. c #8C5B3B",
"<. c #925E3D",
"1. c #995E3E",
"2. c #8C673D",
"3. c #94613E",
"4. c #99623F",
"5. c #936C3F",
"6. c #827739",
"7. c #835C42",
"8. c #8C5E41",
"9. c #935E40",
"0. c #8D6244",
"q. c #866548",
"w. c #956342",
"e. c #9B6543",
"r. c #9E6945",
"t. c #95694B",
"y. c #9D6B4A",
"u. c #9A7144",
"i. c #927356",
"p. c #A26743",
"a. c #A26A46",
"s. c #A46C49",
"d. c #A96E4A",
"f. c #A6714C",
"g. c #AB724D",
"h. c #A57352",
"j. c #AD7551",
"k. c #AD7953",
"l. c #A57958",
"z. c #AD7B5A",
"x. c #B17651",
"c. c #B37A54",
"v. c #B47E59",
"b. c #B57E59",
"n. c #817774",
"m. c #837D7C",
"M. c #A77B61",
"N. c #B27F60",
"B. c #6C834C",
"V. c #728557",
"C. c #798568",
"Z. c #7C8274",
"A. c #B6815C",
"S. c #BA835D",
"D. c #B0895C",
"F. c #87837D",
"G. c #929470",
"H. c #A98367",
"J. c #BC8661",
"K. c #BA8968",
"L. c #B58E71",
"P. c #B98D71",
"I. c #BA9378",
"U. c #C18C65",
"Y. c #C6936C",
"T. c #C79674",
"R. c #7E7E81",
"E. c #807F82",
"W. c #838284",
"Q. c #888281",
"!. c #868689",
"~. c #898888",
"^. c #8B8A8D",
"/. c #8E8D91",
"(. c #908F94",
"). c #929295",
"_. c #9A9596",
"`. c #969699",
"'. c #98979B",
"]. c #9B9A9D",
"[. c #A69E86",
"{. c #BE9881",
"}. c #B2AB92",
"|. c #B9B295",
" X c #9E9EA1",
".X c #A09FA3",
"XX c #A2A1A5",
"oX c #A6A5AA",
"OX c #A8A7AC",
"+X c #AAA9AE",
"@X c #BDB7A2",
"#X c #ADADB2",
"$X c #B0AFB4",
"%X c #B2B1B6",
"&X c #B5B4BA",
"*X c #B8B7BD",
"=X c #BAB9BE",
"-X c #CBA78A",
";X c #CBAA91",
":X c #D5B79D",
">X c #C9C7B7",
",X c #BEBDC2",
"<X c #C0BFC5",
"1X c #C2C1C7",
"2X c #CCCEC1",
"3X c #C3C2C8",
"4X c #E0D0C7",
/* pixels */
"g.g.k.c.d.g.x.d.d.a.f.y.a.r.g.a.a.a.c.c.k.j.c.g.f.s.e.r.r.a.d.a.y.c.k.c.g.d.e.w.e.c.x.d.a.s.f.e.a.g.j.g.g.f.g.j.f.g.f.3.r.s.y.a.",
"g.g.g.x.g.x.d.a.d.s.f.a.r.a.g.e.d.x.c.k.j.j.g.f.d.r.r.r.a.e.a.s.k.g.v.S.s.g.s.f.c.c.c.j.s.e.A.s.f.f.j.g.s.j.g.g.c.f.e.a.a.r.g.f.",
"d.x.x.g.x.j.d.d.f.d.a.s.e.r.3.r.x.b.S.v.J.y.r.g.s.s.e.a.t.9.y.w.k ;.7.7.:.<.r.j.b.c.c.x.d.w.x.j.d.r.k.x.a.d.g.g.k.e.r.e.r.a.j.y.",
"g.k.z.j.x.x.d.d.g.d.f.d.s.<.w.f.b.J.J.S.h.f.A.v.g.s.e.k a P L - 7 Z ^ ....n./ ~ q.t.s.s.h.e.a.g.r.d.c.b.a.a.j.d.y.a.4.e.a.A.q.:.",
"g.z.h.x.x.x.g.g.d.s.g.4.d.r.:.A.J.S.K.j.l.Y.A.y.0.>.g Y } Y H { !. XoX#X+XOXXX_.m.i.U 8.d.h.d.d.s.k.v.v.j.d.e.e.a.d.e.k.J.A.s.u ",
"k.g.d.c.x.g.a.d.j.s.r.c.e.f.j.Y.U.b.S.f.U.g.e.*.K } &.E.+.#.).#X*X<X3X3X<X<X3X<X*X.Xm.L a h.d.j.a.b.v.s.h.f.e.w.j.g.H.U.g.x.x.f.",
"j.e.k.c.x.d.f.b.c.a.f.U.k.w.J.A.S.k.S.j.g.r.q.! o.^.~.@.R.oX,X,X,X<X3X1X,X,X=XOX(.E.@.H Z I h.x.c.b.x.g.g.p.y.f.P.g.v.c.d.j.x.x.",
"g.w.b.c.x.d.c.A.f.g.b.b.c.,.y.b.f.J.f.r.z.i.! o.W.#.[ E.+X,X<X<X<X<X3X,X=X X!.m.!.(.]. X'.o.7.h.S.x.g.c.a.a.g.z.g.g.f.x.g.j.x.c.",
"j.j.c.j.g.g.k.g.y.A.g.c.r.,.A.S.s.h.H.-XM.Y &.(.R._ @.,X<X,X,X,X3X<X<X#X/.!.)..X%X,X,X<X<X+X$.q.v.g.g.g.j.d.f.e.r.g.a.d.g.j.x.j.",
"k.g.g.j.g.x.g.d.a.w.s.r.,.g.v.v.a.I.:XL.T $.'.`.+.R.oX3X3X,X,X,X&X#X).W.(.+X,X,X<X3X3X<X3X<X.Xn.q.r.s.j.g.d.r.3.a.f.w.j.d.g.c.c.",
"w.f.k.d.c.d.g.g.a.,.e.e.x.c.c.c.K.;Xz.P ] ).].&.@. X,X<X,X,X,X+X+X X/.'.,X,X<X3X3X3X<X3X<X3X,X`./ :.e.j.r.w.a.a.d.y.e.h.d.g.g.c.",
"y.j.r.f.J.w.d.d.s.s.s.s.d.d.f.f.;XK.q.Z %.).!.@.`.,X,X,X,X,X,X,X,X$X#X,X<X3X3X3X<X3X<X,X<X<X<X,XF.U w.e.a.w.e.g.g.r.3.s.d.g.x.g.",
"g.J.h.g.c.s.<.a.d.e.w.e.,.<.3.I.T.t.Y &.(.^.+.R.,X,X,X<X<X<X3X3X,X,X<X3X3X<X<X<X3X<X<X<X<X3X3X<XoX^ >.r.4.a.r.g.g.d.3.s.x.d.j.j.",
"j.S.v.g.c.a.3.r.e.1.9.*.h w.{.;Xh.U o./.R.[ R.oX,X,X3X3X<X,X3X<X<X3X3X<X3X3X<X,X3X3X3X<X3X<X3X<X,XQ.P ,.a.9.a.j.d.d.r.d.g.a.y.j.",
"g.Y.z.w.d.p.<.e.e.e.-.p =.D.-Xj.I } ^.(.R._ !.,X,X+X`.R.R.^.+X,X,X.X!.%.&.R. X,X,XoX XoX,X<X<X3X<XoX} h r.<.g.a.f.a.r.a.s.s.s.s.",
"c.T.h.w.d.w.e.e.e.e.-.h h.-Xj.;.L R. X(.{ R.,X,X,XR.m m V m D !.#XR.V # O m [ oX,X%.$ m %.oX<X3X<X*Xm.P <.y.d.d.d.a.e.y.j.a.g.s.",
"j.T.0.s h.>.p.9.e.<.;.a.z.g.y.U } `. X~.#.].,X3X,X_ $ @.`.R.m V (.oX!.M $ @. X,X,XR.o O % H .X<X3X3X_.T :.g.a.s.e.d.e.f.g.a.y.g.",
"A.P.e.r h.4 e g.s.;.0.w.f.g.0.U W.].`.%.Z.&X3X3X,X[ m `.,X,XR.m R.,X,X_ M  X,X<X<X).M F { M [ $X3X3X#X .7.s.d.s.r.g.d.g.g.p.e.e.",
"-Xc.y.c.g.w.;.j.w.;.;.8.S.f.I } ). X^.#.`.,X3X3X,X[ m (.,X,X/.m @.,X,X{ M (.<X<X<XoXV F  X_ M `.3X3X,Xm.I e.a.y.d.k.x.d.g.a.r.r.",
"-Xe.,.k.f.a.g.e.<.k =.w.S.w.! F.].].$.&.%X3X3X3X,X{ m (.3X,X+.m E.,X,XR.m !.<X<X<X&X_ M  X+.M W.3X<X<X/.T 9.d.s.j.g.g.r.a.g.a.e.",
"S.j.d.a.<.w.a.w.p >.=.D.A.>.^ /. X/.#./.,X3X3X3X,X[ # _ R._ m _ +X<X<XE.m R.,X<X<X,X{ # F M V .X<X3X3XoX/ :.s.s.s.g.g.d.d.g.g.<.",
"c.c.r.8.a.*.a.k s ,.w.z.2.U $.]. XR.%.oX3X,X3X3X,X_     O V _  X,X<X<X^.m %.,X<X<X<X%.o $ F E.&X<X3X3X$X..7.s.s.g.j.g.g.g.a.g.r.",
"j.r.u ;.a.,.d.w.<.r w.w.h Z { ~./.#.W.*X,X1X,X3X,X_ O o o { +X,X<X<X<X/.m @.<X<X<X,XR.$ [ .X,X<X3X3X3X,Xm.7.d.g.g.g.g.g.d.s.a.g.",
"j.e.k e.,.h.c.;.u k w.r.p Z %./.~.+.`.1X3X,X,X1X,X_ m @.V F oX,X<X<X<X(.M +.,X<X<X<XR.M R.<X<X3X<X<X<X<X~.U e.d.f.g.d.d.f.d.s.f.",
"s.d.w.<.g.s.w.s s ,.e.3.9 Q !.`.&.%.OX3X3X1X,X3X$XF D  XR.m @.,X3X<X,X(.M +.,X,X<X3XW.% E.,X3X<X<X<X3X<X_.T :.a.d.s.r.s.g.s.r.s.",
"a.a.s y.e.p ;.*.p ;.,.;.L &.`.'.%.W.&X1X3X<X<X<XOXD F #XoXC D oX3X3X,X(.M { ,X<X3X3XE.M E.<X1X<X,X<X3X3X X/ ;.<.e.d.s.s.j.g.e.t.",
"g.*.0.k.w k h s e 3.,.p ! /. X).#./.,X3X,X<X,X,XXXV H $X,X+.m /.<X<X3X Xm [ ,X,X<X<XE.% E.<X<X<X<X<X3X3XOX .;.:.e.y.s.a.s.s.a.w.",
"e.*.a.k + p s.r p w.*.i X.`. X~.#.].1X3X<X,X3X3X'.N [ *X,X!.m #.<X<X3X Xm [ ,X,X<X<X%.M !.<X<X<X3X<X<X3X+X .>.e.t e.g.s.e.a.d.d.",
"w.,.s.h * ;.g.s h 3.;.K $.]. XE.%.OX3X<X3X3X3X3X/.m +.,X3X Xm ` ,X,X<X(.M +.,X,X<X<X{ M (.3X1X1X<X3X<X<X$Xn.:.,.h s.g.r.d.g.f.j.",
"<.w.;.w u ,.<.=.;.,.,.U F.].].%.R.%X3X3X<X3X3X,XR.m R.1X3XXXV _ +X,X/._ o V E.,X<X<X` M '.3X1X3X3X1X,X<X%Xn.7.<.=.<.g.d.s.j.j.d.",
"=.a.r ;.p g.r.e.p r.,.J #.^.E._ +.#X<X<X3X3X3X3XR.V W.+X#X).N D  X(._ m m m _  X<X$XF C oX<X1X1X1X1X<X<X*X$.7.w.;.e.g.g.g.g.g.g.",
"w.a.s ;.w.c.s.e.h =.w.i Z @.E.#.H { W.!.^./././.` D #./.)./.` +. XOX X`.`.(.`.+X3X+X_ [ $X3X1X1X1X1X<X<X,Xn.I =.w.p.d.g.d.a.g.j.",
"s.e.-.3.s.p.e.-.; h 7.= G E./.%.[ !././.!.!.!.R.{ ` R.XX#X,X+X#X,X,X<X3X<X<X<X<X3X,X X.X<X<X<X<X3X3X<X3X<Xm.s 9.g.d.s.d.d.d.d.g.",
"w.w.=.-.w.9.w.;.a *.s - W ~.~.[ R.#X,X,X,X#X,X,X#X'./.).oX,X3X,X<X,X<X<X3X3X3X3X<X<X<X<X<X<X<X<X<X3X<X3X<XE.I 1.d.a.s.g.j.d.d.x.",
"e.<.<.e.p.9.<.s s 9.s * C #.E.%.` /.,X3X,X,X3X3X,X,X#X].(.`.#X,X<X,X<X<X<X<X<X3X<X<X<X3X<X<X<X<X3X3X3X<X<Xm.P 9.a.a.s.d.g.d.x.g.",
",.g.a.d.<.<.-.s *.u * B [ W.).&.[ '.3X3X,X,X3X3X3X3X,X,X,XoX X X$X,X,X<X<X<X<X<X<X<X<X3X<X<X<X<X<X<X3X3X<XE.P :.p.s.p.d.g.d.g.g.",
"h.d.r.e.=.*.h s p + - ` W./.].R.R.].,X3X3X,X,X3X3X3X3X3X1X,X,X#XoXXXoX,X,X,X,X,X3X3X<X<X3X<X<X3X3X3X3X3X<XE.I 9.w.p.d.s.d.d.x.d.",
"c.a.s.e.=.s h *.s & L m.`.)./.O._ '.3X3X3X3X,X,X,X,X,X3X1X3X,X,X,X,X$X,X,X,X<X<X<X3X3X3X3X3X3X<X3X<X<X3X<X~.I 9.-.d.g.s.d.g.g.g.",
"a.j.s.,.s *.h =.p & L !. X]./.#.[  X3X3X,X,X,X,X3X,X,X3X3X3X1X1X,X<X,X,X,X,X,X,X<X3X<X3X<X3X3X3X3X<X3X3X<XE.7.:.e.x.x.a.s.g.x.d.",
"r.a.<.,.k -.s =.s = Y /. X].].$.R.XX,X,X3X,X3X3X3X,X3X3X,X3X1X1X<X<X<X,X,X,X,X,X3X<X3X3X<X3X<X3X<X3X3X<X<XE.7.9.c.g.d.g.p.d.g.g.",
"s.e.<.*.s <.p w.9.u ^ ). X].].$.R.#X#X'. X,X,X,X,X3X1X,X,X,X3X1X<X<X3X<X<X3X<X<X<X3X3X<X3X<X3X3X<X<X<X<X<XE.U s.g.4.a.d.s.s.d.j.",
"a.w.-.s s <.:.p.,.i { ].]. X].#.R.,X,X,X'.(./.OX,X1X1X,X+X+X,X1X<X<X<X3X3X3X3X3X3X<X3X3X3X<X3X<X3X<X<X<X<XE.I d.a.e.w.d.r.s.g.g.",
"p.3.*.p =.<.<.w.*.i H W.).].).#.^.,X3X,X,X#X'.(.`.#X,X,XXXXX,X1X3X<X3X3X3X<X3X<X<X3X<X3X<X3X3X3X<X<X*X<X=Xn.q.h.g.p.<.c.s.s.d.d.",
"e.-.u s -.<.w.4.<.9 ` !.~.`.^.#./.,X3X3X,X,X,X#XXX XXX+X,X,X,X1X3X3X3X<X3X<X3X3X3X3X<X3X3X3X<X<X<X<X<X<X<Xm.7.a.g.<.e.c.s.g.d.d.",
",.*.= p -.,.e.9.:.9 ] !./.'.!.+.'.3X3X3X,X3X3X,X,X,X,X,X1X1X1X1X<X3X<X3X3X<X3X<X<X3X3X<X3X<X<X3X<X<X<X3X&Xn.I s.s.p.g.j.a.g.s.d.",
"-.s * *.<.<.a.d.=.Z +.W./.'.!.+. X3X3X,X,X,X3X3X1X3X,X,X1X1X1X1X<X3X3X3X<X3X3X<X<X3X3X<X3X3X<X<X3X3X<X<X,X$.7.e.s.s.d.g.d.d.d.d.",
"=.e = w.a.a.a.s.k Y W.`.`. XR.R.XX3X3X,X,X,X3X3X,X1X1X1X1X1X1X1X3X3X<X<X3X3X3X3X3X3X3X3X<X<X<X<X3X<X<X<X,X..7.r.s.s.g.g.d.d.d.a.",
"=.e r a.a.e.e.w.j { /. X X XR.R.oX3X3X,X,X3X3X,X,X,X1X1X1X1X1X1X<X3X3X3X3X<X<X3X3X<X<X3X3X3X<X<X3X3X<X<X&Xo.7.a.d.g.g.d.s.a.j.s.",
"s s =.9.,.r.e.e.k ^ ^.`.].].W.%.oX3X1X1X1X3X1X1X,X,X,X3X1X1X1X1X<X3X3X<X1X1X1X3X3X1X1X1X1X1X1X1X<X<X<X<X%X} 7.h.d.g.x.d.s.d.d.d.",
"s *.,.a.s.d.s.a.k } ).(.!.E.{ @.oX3X1X1X1X1X1X1X,X,X1X1X1X1X3X1X3X1X1X3X1X1X1X1X1X1X1X1X1X1X1X1X<X<X3X3X$Xq.t.j.d.x.x.d.s.p.c.x.",
"<.=.w.a.e.p.d.a.k } ).]./.!.' [ oX3X1X1X1X1X1X3X1X1X1X1X1X1X1X1X1X3X1X1X1X3X1X1X1X1X1X3X1X1X1X1X3X<X<X3X#Xn.t.d.d.x.j.d.d.j.b.d.",
"s.9.s.a.e.e.d.d.k ] `. X X].&.#.oX3X1X3X1X1X1X1X1X1X1X1X3X1X1X1X3X<X1X1X1X1X1X1X1X1X1X1X1X1X1X1X<X<X3X3X.X} t.d.s.d.d.g.d.x.j.j.",
"e.e.y.e.e.w.d.a.k } `. X X XW.%.oX3X3X3X1X1X3X3X1X1X3X1X1X1X1X1X1X3X1X1X1X1X1X1X1X1X1X1X1X1X3X,X<X<X<X3XOXq.9.d.p.d.s.x.x.x.x.x.",
"j.a.p.r.4.a.j.d.I } '. X X XW.%. X,X,X3X1X3X3X3X1X3X3X3X1X1X1X1X3X<X<X3X1X1X1X3X1X3X1X1X1X3X1X1X<X<X3X3X X( 9.p.p.x.d.d.x.x.x.x.",
"y.a.2.-.4.s.g.j.k Q /. X]. X!.X.R.(.*X3X1X,X#X&X1X1X1X,X,X,X1X1X,X,X,X3X1X1X3X3X3X3X1X3X3X3X1X1X<X3X3X3X(.T y.d.f.d.d.s.x.x.x.d.",
"r.3.p w j e.g.g.a - O.'. X X~.G < &.*X1X1X X#.].1X1X,X(.(.,X3X1X,X X X,X3X3X,X#X%X<X1X1X%X#X,X1X3X<X<X3X/.q.8.9.d.d.p.a.d.d.x.x.",
"e.r.w.d 6 f 3.r.i X A ~. X X/.A @ [ ].&X&X+.C /.*X<XXXH $.*X1X3X X_ &.,X<X<XXX@.`.<X3X$X&.&.%X1X<X,X1X,Xm.- = ,.x.a.a.a.d.g.x.x.",
"r.g.a.2.c 6 4 = * X 5 V.).Z.{ 0 , 8 ]  X`.S B { /.$X&.8 Q ).$X=XZ.N +. X%X,X#.D ^.*X,X/.B G R.oX$X`.+XXXW @ w w.x.a.4.a.a.d.x.x.",
"f.d.a.r.n z 2 X . . 2 B.C.X.< 1 2 : R ] W 5 , < Q Z.W 1 8 X.~./.W < A @. X].R 8 ` W. XX.< B A Z./.' $.V.5 4 r j 5.w.e.d.a.d.f.g.",
"r.a.a.a.w.6.v y 4 q V.G.Z.Z.V.B.B.B.) ) R E E x E S 6 5 , R W S 0 1 , R ] W 0 , < S W R < < 5 R H 0 0 x : : 3 w ;.e.a.d.d.g.a.a.",
"r.a.a.p.y.k.u.u.t.H.@X>X>X2X2X@X}.|.}.}.[.[.G.G.i.q.6.b l b p u f f f b g d b l v b l v v f n v g g c n c c v j <.p.p.d.a.g.s.a.",
"4.f.a.e.g.c.g.a.g.z.P.I.;X4X2X{.P.T.P.P.N.M.i.l.H.w.k.e.e.w.-.2.t >.j.r.,.,.f.f.f.g.s.h.l.z.D.D.f.y.5.u.u.y.y.3.<.w.d.d.a.d.s.d.",
"d.d.e.a.x.g.g.d.d.a.d.d.j.P.P.j.d.d.g.d.d.;.>.w.9.s.b.s.r.<.4.e.s s.S.e.3.-.g.S.c.x.A.S.S.K.S.S.A.x.f.a.g.s.d.e.,.=.d.d.a.a.s.s.",
"p.p.a.g.g.x.g.d.d.d.g.s.d.g.d.d.d.g.d.j.<.;.-.9.s.S.b.d.e.w.a.e.w.c.x.r.e.h b.K.c.c.c.S.S.A.Y.S.S.A.x.f.d.j.a.p.w.,.p.d.p.1.d.s."
};
