/* XPM */
static char *_548d56072b34a96f24892296be382b0a198i9ircir8A89D[] = {
/* columns rows colors chars-per-pixel */
"64 64 238 2 ",
"   c #040302",
".  c #0B0503",
"X  c #0D0805",
"o  c #06060A",
"O  c #0D0B0B",
"+  c #140A05",
"@  c #150B07",
"#  c #1A0E05",
"$  c #120E0B",
"%  c #1D1007",
"&  c #13100E",
"*  c #1C120A",
"=  c #0C0C11",
"-  c #151412",
";  c #1B1716",
":  c #1C1B1B",
">  c #22140B",
",  c #28180D",
"<  c #2C190D",
"1  c #311D0F",
"2  c #251B15",
"3  c #241B16",
"4  c #2B1C13",
"5  c #321F11",
"6  c #2E2016",
"7  c #25211D",
"8  c #2C221B",
"9  c #342114",
"0  c #3C2415",
"q  c #382619",
"w  c #3D291B",
"e  c #101628",
"r  c #1D212E",
"t  c #232221",
"y  c #2A2626",
"u  c #2B2A2A",
"i  c #332922",
"p  c #3B2B23",
"a  c #322D2A",
"s  c #3B322C",
"d  c #2B2C34",
"f  c #312C33",
"g  c #3C3532",
"h  c #383637",
"j  c #3C3C3B",
"k  c #402716",
"l  c #412817",
"z  c #442B19",
"x  c #492E1B",
"c  c #47301C",
"v  c #4D321D",
"b  c #52351E",
"n  c #56381F",
"m  c #432D23",
"M  c #4D3323",
"N  c #47352B",
"B  c #533621",
"V  c #563923",
"C  c #593B24",
"Z  c #513728",
"A  c #553B2C",
"S  c #5B3E2A",
"D  c #443B36",
"F  c #4B3D34",
"G  c #523E33",
"H  c #5E422B",
"J  c #4D433C",
"K  c #5C4333",
"L  c #57463A",
"P  c #64432D",
"I  c #6A462E",
"U  c #71482F",
"Y  c #664836",
"T  c #6C4A34",
"R  c #744D33",
"E  c #794E32",
"W  c #714D39",
"Q  c #6E513C",
"!  c #7D5135",
"~  c #76523C",
"^  c #79543B",
"/  c #7A543C",
"(  c #12284E",
")  c #31384A",
"_  c #293756",
"`  c #1A3B71",
"'  c #2B3F61",
"]  c #443D43",
"[  c #3A4257",
"{  c #2F466F",
"}  c #384A6B",
"|  c #284779",
" . c #3D527A",
".. c #454545",
"X. c #4B4544",
"o. c #4B484A",
"O. c #534A43",
"+. c #5C4B42",
"@. c #544C49",
"#. c #59514A",
"$. c #5C514B",
"%. c #4C4B52",
"&. c #545454",
"*. c #5D5756",
"=. c #614E41",
"-. c #675448",
";. c #795A46",
":. c #645A53",
">. c #665B58",
",. c #735E53",
"<. c #7B614C",
"1. c #6D6259",
"2. c #786657",
"3. c #42516E",
"4. c #55617C",
"5. c #686565",
"6. c #746B67",
"7. c #7A716A",
"8. c #6C6A77",
"9. c #776D73",
"0. c #797677",
"q. c #845535",
"w. c #83543A",
"e. c #87583A",
"r. c #8C5B3B",
"t. c #925E3E",
"y. c #94603E",
"u. c #99633D",
"i. c #845C43",
"p. c #8A5F42",
"a. c #825F4D",
"s. c #925F41",
"d. c #8B6145",
"f. c #84634C",
"g. c #8C634A",
"h. c #946242",
"j. c #9B6543",
"k. c #9E6945",
"l. c #92664B",
"z. c #96694E",
"x. c #9D6C4B",
"c. c #856A56",
"v. c #8D6A53",
"b. c #946C53",
"n. c #9B6E52",
"m. c #926C59",
"M. c #86725D",
"N. c #9D7155",
"B. c #98735A",
"V. c #A36745",
"C. c #A26A46",
"Z. c #A56D4A",
"A. c #A96E4B",
"S. c #A6714C",
"D. c #AB724D",
"F. c #B0754F",
"G. c #A47353",
"H. c #AD7551",
"J. c #AD7953",
"K. c #A4765A",
"L. c #A8775A",
"P. c #A57A5E",
"I. c #AB7B5C",
"U. c #B17651",
"Y. c #B27A55",
"T. c #B47E5A",
"R. c #B87E59",
"E. c #826D64",
"W. c #897767",
"Q. c #977A67",
"!. c #9B7C6B",
"~. c #897A75",
"^. c #827C7B",
"/. c #997D72",
"(. c #A47C62",
"). c #AB7E63",
"_. c #A27E68",
"`. c #B07F61",
"'. c #B7815B",
"]. c #BA845D",
"[. c #9A836C",
"{. c #85807C",
"}. c #998675",
"|. c #AD8164",
" X c #A8846A",
".X c #B28365",
"XX c #BC8964",
"oX c #B38B6E",
"OX c #A68B73",
"+X c #B58E71",
"@X c #AA957B",
"#X c #AC967C",
"$X c #B79478",
"%X c #BB9B7C",
"&X c #C28F68",
"*X c #264E8D",
"=X c #2E548E",
"-X c #34548A",
";X c #295599",
":X c #345B95",
">X c #275CAA",
",X c #2B65B7",
"<X c #3668B1",
"1X c #376CB7",
"2X c #55698F",
"3X c #576D96",
"4X c #67718A",
"5X c #78798D",
"6X c #7C7E94",
"7X c #777E98",
"8X c #597AB0",
"9X c #8A7C83",
"0X c #7C839C",
"qX c #798BAF",
"wX c #6384B7",
"eX c #98908C",
"rX c #848799",
"tX c #AF9B88",
"yX c #B59C83",
"uX c #B6A286",
"iX c #BDA285",
"pX c #BDA68A",
"aX c #BEA98D",
"sX c #858CA3",
"dX c #8B92A7",
"fX c #949AAB",
"gX c #8798B6",
"hX c #979FB2",
"jX c #9FA2AF",
"kX c #9CA3B4",
"lX c #AFAEAF",
"zX c #C09F81",
"xX c #C2A689",
"cX c #C1AB8E",
"vX c #C1A594",
"bX c #C2AE91",
"nX c #C6B193",
"mX c #CBB597",
/* pixels */
"D.D.J.Y.A.D.F.A.C.Z.Z.S.C.k.D.C.C.C.'.'.J.D.Y.D.S.k.k.k.k.C.S.k.x.T.Y.Y.D.S.k.h.u.J.Y.D.k.S.S.j.C.S.U.S.D.S.D.D.H.S.S.t.k.Z.x.C.",
"D.D.D.U.H.U.A.C.A.Z.G.S.z.N.N.n.B.|.P.B.|.B.N.B.K.G.x.k.k.k.k.S.P.K.I.|.G.G.Z.A.J.'.Y.D.C.k.'.S.S.S.Y.D.Z.D.D.D.Y.S.j.k.Z.j.S.S.",
"A.Y.U.D.H.H.A.A.D.L.P.!.Q.Q.W.Q.}.}.}.}.}.{.[.}./.OXN.C.k.h.S.|.[.[.[._._. XI.Y.Y.Y.'.D.Z.y.D.D.A.C.D.Y.C.H.S.D.J.k.k.k.k.k.H.x.",
"D.J.I.D.U.U.A.A.G.b.2.-.J D J X.J @.o.L X.J J X.:.2.Q.!.N.|.[.2.=.L G J L -.c.|.|.'.J.S.J.k.C.D.k.S.Y.Y.C.C.H.Z.k.C.u.j.C.'.l.q.",
"D.J.G.Y.U.F.D.A.D.2.&.u - O O & - - - - & & $ & y o.7.}.OXQ.0.$.t $   O : d :.[. X|.K.N.P.G.G.S.S.H.T.T.D.A.j.j.C.A.V.L.XX'.S.T ",
"J.H.A.Y.U.D.A.S.Y.2...t o   + * > * , * * # # # 8 s &.6.7.5.$.D 7 # O   O - h &.6.7.W.W.M.W.|.'.S.'.T.Z.G.S.k.u.D.S.|.&XD.F.U.S.",
"H.k.J.Y.D.D.S.'.T.,...:   . # < 1 9 9 9 6 1 < , 4 8 g J X.X.F s 9 , #     O : f [ O.#.#.$.1.M. XI.T.H.U.D.C.k.S.+XD.Y.Y.A.H.U.U.",
"D.h.Y.Y.F.A.Y.].H.2...7 $ + , w c v b v b c c w 9 9 4 ; 2 2 8 z c w 5 * $   O & - - - - : a $.[.oXY.S.Y.C.C.H.L.F.D.S.U.D.H.U.U.",
"D.Y.U.H.D.H.H.Y.G.E.o.t O X * 5 q c c H v b b c z 9 < > * < 9 c v x w , > # # * * * * % > 8 J 1.M.m.G.H.H.S.S.j.k.D.C.A.D.D.Y.H.",
"Y.D.S.U.A.U.D.L.(.2.o.: o   X * , q c v b H V b v c 9 1 < 1 0 c B v c 9 6 < < < 6 6 1 1 1 q i g O.,.v.I.D.S.k.y.k.S.h.J.A.D.Y.Y.",
"h.S.J.A.Y.D.T. XeX6...7 X     + * 6 w v n H b V b c z 0 0 w c v B b v c z 0 0 w c v v v c c w 6 q s -.g.x.u.k.k.S.C.j.G.A.D.D.Y.",
"j.J.k.G.XXb.(.~.~.>.j 7 & X $ * , 6 w c H b V V n n b v c v v B V b b c c c b v V n n H V b w 1 4 8 F Q i.s.k.D.D.k.y.Z.D.D.U.D.",
"D.].G.D.oX[.6.:.o.g 8 6 < < 6 9 q c c b V V H V V n B b n b b B V V B b B b B H n H n n H b c l 0 w p F L ;.x.D.D.S.y.A.F.C.H.U.",
"H.XX|.|.[.0.$.j 8 8 9 q q 0 c c v v b V V V V C V V V V V V V V V V V B V B b n V n H V V n n v c c w w p K ^ x.A.C.k.A.D.Z.Z.G.",
"J.&X X}.W.*.s 2 + > 1 l c v n n H n V H V V V V C V V V V V V n V V V V H H n b n n V b V n V H V n 0 < % 6 F w.Z.k.C.C.S.C.A.Z.",
"I.OX2.:.X.g i 4 < 5 0 c b n V V V V V V V V C V V V V V V V V n V V V H b n n H n H V H V H V n V B v z q w m K ~ i.p.x.D.C.A.Z.",
"N.~.&.a t 2 4 9 k z x b n V V V V C C V B C B C V V V n V V V H V V V V V V V C B V B V V C C C V C V b c c w w m L ^ C.S.C.k.S.",
"!.1.j - & # , 0 z x b b V C C C C n B B B B B C C V H n V V V V V V V V b b v v b v n B B B V V V V C V V v w < * 4 K n.S.C.k.k.",
"+X>.h X . + , 0 x x b V C C C V B b b x v b B B V V V V V n V V V V b v M x x x c v v n B V V C V C H V C n 0 > @ & F v.N.C.k.k.",
"tX:.j & + + < 9 z v b n V C C V B b x x z x v B V V V V V H V V V b v x z l l z z c c b V V C C V V C C C c z , # & N 2.l.D.C.u.",
"I.1.D = + # , 0 z z v v B B b b v v z z l x x B V V H V V V C C V B M l z l x M V S I I I I P C V n B B C b z 5 , ; s =.f.N.K.l.",
"G.1.) & X + , 0 z z x x v x x x x z z l l x v B n V n V V V C V V b v l z z B P W ~ / ;.i./ T P V v v B B M x 0 6 4 i g -.2.B.b.",
"n.:.j = + + , 9 k z z z z z z z z l l k l x v B n V V C C V V V V b v x M B P / g.n.G.N.n.l.i.T S v c v b B v x 0 9 9 8 8 s +.2.",
"N.:.j $ + # < 0 z z z z z z z k k k k k k z v B V n H V V V B n B b b B S P / p.n.L.I.I.L.G.g./ T S C V B B v x z 0 < % & ; s ,.",
"l.:.j & + + , 5 x x x x x z z k 0 0 0 k k z x B C C C C V B v v x B S I ;.i.l.n.L.I.`.T.I.L.n.l.i.;.T P C b x z z l 1 # . $ y +.",
"l.1.j & + # < 5 z x v b b x z z l l z z z x v B B C V C V B v v v S I W i.s.n.L.I.I.`.`.).I.L.n.s.p./ P B x z z z 0 1 # . $ u $.",
"z.*.j & + + , 0 z v b b B b x z z x x B B B B B B B B C V B n B Z S R i.g.z.K.(.).|..X.X.X).P.L.n.g.;.S M l 9 9 0 0 < # X & u $.",
"l.:.j & + + , 0 x v b B B B B b B S P T W P S B b x b B V H P U R W T T =.;.v.B.oX+X%X$X$XoX!.v.;.Y Z m 5 < 4 5 0 0 < # . O y -.",
"d.:.j & + + , 0 z x b B B B B B S I / i.i./ T C M x v B S P R ;.i.i.=.S S K ;.m.OXyXxXxXyX+XQ.,.Y m q 2 # * # > 5 5 < > $ ; g -.",
"i.:.j & + + , 0 z x b b B B B C P ~ g.x.n.g./ P C x v v S U f.b.N.g.W M m m +.E.@XaXmXnXcX@XQ.-.N 2 @ .     X * , 5 4 4 8 a $.c.",
"/ :.j O . + , 0 z x x x b b b C P ^ l.n.L.n.g./ R P Z B C Y f.B._.m.;.N p i +.E.@XaXmXmXcX#XW.-.m ; @ .       X @ > 8 g J ;.f.n.",
"d.:.g & + + , 0 l z z x x x v C P ^ d.n.I.L.G.b.p.~ P C V Y f.Q.OX!.,.N m p Y E.#XaXmXnXbX#XQ.-.m > X .         . & p @.c.G.G.D.",
"j.f.L a y 3 4 9 1 0 k k z x v b P W p.n.I.I.I.L.N.g.^ T T ;.M.OXyX}.M.=.L J -.[.#XaXmXnXaXuX[.2.L p 6 & X   O O : u L M.N.D.D.H.",
"j.j./ @.J s q 4 < 1 1 0 k k x b S W p.n.I.`.`.`.P.N.v.<.<.M.[.#XyX#X[.2.2.,.M.[.uXaXnXnXaXuXOXW.2.L s 8 & & - u j &.2.B.S.S.D.F.",
"j.y.r.h.f.-.s 3 # # < 0 k k z c V T i.n.I.T.`.I.|.|. X XOX@XtXuXaXuXtXOXOX}.@X#XpXaXbXnXaXaXuXtX[.[.-.J ; : t %.6.[.N.S.D.S.D.D.",
"r.D.C.A.l.;.L s 8 4 1 1 1 0 0 l b P ;.p.n.G.L.).|.|.oX#X#X%XiXpXvXaXpXuXuXuXuXpXaXbXaXbXaXaXaXaX#X[.<.J 7 t d 5.{. XS.C.D.D.D.D.",
"G.D.k.k.r.q./ -.X.s 8 4 , < 5 0 m C U / i.z.n.L.I..X$X$XzXzXvXvXcXbXnXnXnXnXnXaXnXbXaXbXbXnXxXvX%X#X2.L , t d 0.}.x.D.C.A.D.D.D.",
"Y.k.Z.j.q.E / / Y D j 7 * > , 0 k v B S I ;.p.N.K.|..XoXoXyX%XzXaXbXbXbXaXnXnXaXcXcXbXcXxXxXxXzX+X X<.H 7 7 h 6.~.S.D.C.C.D.D.D.",
"C.H.Z.r.E q.q.q.E J O.s 7 3 4 9 0 0 k m B P / g.x.P.I.|.`.oX+XzX%XcXpXaXaXaXaXaXxXxXvXvXxXiXyXoX[.z.Q J i g ..7.}.L.F.A.V.D.F.D.",
"k.k.y.r.! r.! q.! Y W :.o.D i 6 < 1 1 k z V I ^ i.l.n.G.`.`.oXyX%X%X%X%X%X%X%X%X%X%XiX&XyX$X).m.<.Q Q L $.5.0.}.oXD.A.D.C.A.D.D.",
"C.k.t.q.E r.E t.j.r.w.<.1.:.j 7 > > < 1 k x B S U ;.p.n.(.`.`.`.XXoXoXoX+X+X+X+X+X+X+X+X)._.m.=.K F o.1.5XeXeXOX).k.C.A.x.C.A.H.",
"C.j.e.E q.t.e.k.r.t.w.r.m.0.&.7 + + > 1 l l z x b P / s.N.L.).).|.|.|. X).)._.).).).).).L.l.=.M 8 7 ..0.jXmXvX.XC.h.j.A.C.Z.D.D.",
"k.t.q.E q.t.t.u.r.t.R j.v.^.&.t $ + > 1 0 k k k x C I ^ p.m.m._.!./.Q.}./././././.Q.Q.m.a.;.S 5 > : ..0.lXpX$XY.A.V.s.Y.Z.Z.A.A.",
"h.r.U R e.t.j.t.k.~ h.H.b.{.&.7 $ + > , k k k k k x S R ;.;.E.E.~.^.9X9X9X9X9X9X9X~.E.,.W S l > $ : ..9XlXyXL.Z.D.t.j.Y.C.A.A.A.",
"r.q.S U e.t.k.t.k.r.G.A.B.^.&.: @ + > 5 0 k k k z x b C P -.6.9.5X9X7X9X7X6X9X0X9X5X9.+.G m < @ + ; ..0.lXyXZ.A.Z.V.H.H.A.H.A.A.",
"e.E Z ! t.t.C.V.C.C.A.C.B.^.&.t = + % < 0 k z x x x x B S +.>.8.5X7X7X7X7X7X7XsX9X5X8.$.Z 0 > X X ; ..0.lX@XV.C.Z.C.V.H.A.C.H.Z.",
"e.U S h.C.V.C.C.k.V.C.C.b.^.&.: X . # , 0 k x x v b b C S +.>.8.5X7X7X7X7X7XsXdXsX9X5X$.F 5 > + o : [ 7.tX!.A.V.Z.Z.A.H.A.V.A.C.",
"q.I U C.k.k.k.k.k.A.V.A.b.0.&.d 3 > 5 k B b B B B B B B S +.>.8.7X7X7X7XsXsXdXfXfXsX^.:.G q < + * 7 ..2. Xb.D.C.D.G.H.A.A.V.A.A.",
"E U q.t.r.k.k.k.C.Z.Z.G.<.6.*.D g s H K K H H H n n n n S +.:.8.5X6X0XrXsXgXkXkXjXdX9X>.G z 5 , 6 p O.1.g.p.G.A.C.U.F.A.Z.Z.F.A.",
"q.q.t.V.Z.C.C.C.Z.n.m.,.:.:.1.1.2.2.2.M.2.<.Q H C n n n K +.>.8.6X0XsXdXfXkXkXkXjXeX^.>.G M x B H L Y =.Y f.].D.A.U.U.S.V.C.Y.U.",
"r.q.j.V.u.C.C.Z.C.m.1.X.j J 1.[.}.#XtX#X@X[.<.Q H n n n H L 1.8.5X7XdXgXhXhXkXkXkXrX0.:.G Z S T / i.-.K N Y l.j.D.H.D.A.A.F.R.A.",
"C.j.Z.k.j.k.A.A.C.a.@.i 7 J 2.@XaXmXmXaX%X[.<.R C n n n K @.*.4.5X8XqXqXqXgXgXgXgXrX8.*.F Z I e.z.b.~ A 2 t N i.A.Z.D.D.D.U.D.F.",
"V.k.C.k.j.y.A.A.k.y.-.i 7 J <.@XaXmXmXnXuXOXv.W H n b n H J &.4.3X8X8X8XwXwXwXwXwX3X2X%.F Z P i.z.n.~ M > i L p.C.S.A.F.F.D.F.D.",
"D.k.k.k.u.k.H.A.'.|.y.V i J 1.OXaXbXmXaXyX!.c.W H n v H J o.} 2X<X<X1X1X1X1X1X8X<X3X-X) D M P w.g.z.;.A 4 A i.j.V.D.A.D.F.U.U.U.",
"k.D.C.u.k.Z.D.H.S.'.u.;.+.J :.M.[.}.eXeXeX0.5.*.L o.J o.o.}  .:X>X>X,X<X,X,X,X1X,X;X ._ f w v P W / / w.U p.Z.V.S.D.V.A.D.U.U.D.",
"k.k.j.S.k.A.D.D.S.S.S.u.<.L O.$.:.5.8.8.4X4X3X4.3.3.3.3. . .-X=X;X>X>X>X,X,X,X,X>X;X| _ f m S P P ~ r.k.Z.J.k.Z.A.A.C.C.D.H.U.F.",
"k.C.U.A.C.F.F.A.F.S.A.A.y.Y J u d ) _ } -X-X:X:X:X:X;X:X;X;X*X*X*X;X;X>X>X,X,X,X,X;X| _ s ;.x.S.q.! j.x.D.S.k.Z.F.A.C.D.C.A.F.F.",
"k.H.A.C.A.D.F.F.F.S.A.D.k.<.J - e e ( _ { | -X-X-X-X=X*X*X*X` ` ` ` | *X*X;X:X:X:X| _ o.;.S.R.'.Z.R j.Z.Z.A.k.k.F.V.u.C.A.A.F.F.",
"C.A.C.V.Z.A.D.D.D.C.A.A.S.S.C O o o e ( _ _ ' 3.} { ' ` ( ( ( ( ( ( ( _ _ } } 3.} [ ) f.'.'.T.Y.Y.r.j.k.Z.Z.h.j.D.k.u.C.A.S.S.D.",
"k.V.C.V.C.D.F.S.A.C.C.A.H.S.r.P 4 $ 2 y D ] ] ] ..o.) ) d ) h f r r r f ) ] ] o.o.+.;.b.'.&XT.'.'.Z.j.j.S.D.j.A.D.k.S.D.C.D.C.C.",
"k.C.V.V.A.Y.D.A.D.Z.C.A.D.A.A.j.S q p Z G G S S Y Y K A Z A S Z m p p N A A P Y Y e.S.S.R.&XXX'.T.Y.k.C.G.D.A.C.j.V.V.A.C.D.A.C.",
"k.C.Z.k.D.Y.A.C.D.C.C.V.D.Z.A.C.s.s.r.h.s.w.E r.x.p.n.r.e.r.E e.I E l.p.w.w.l.z.x.S.J.J.Y.].&X].Y.U.C.A.C.A.A.u.t.j.C.A.V.A.A.C.",
"C.A.j.C.U.A.D.A.A.Z.A.C.C.H.A.C.A.D.A.Z.C.q.e.j.t.Z.T.C.k.t.s.j.E Z.].j.s.e.A.R.F.Y.'.].].XX].XX'.Y.S.C.A.A.C.k.r.e.A.A.C.V.A.C.",
"C.k.V.A.A.F.F.A.A.A.Z.A.Z.U.A.C.A.A.D.A.k.r.r.h.C.].R.Z.j.j.V.j.s.Y.U.k.j.! T.&XF.Y.R.].].'.&X].'.'.F.A.F.G.C.V.y.t.V.A.V.j.Z.Z."
};
