/* XPM */
static char *_afbae7425e0421edd4e060b46caa651cmZtWJkNaf0Dd8bn[] = {
/* columns rows colors chars-per-pixel */
"64 64 135 2 ",
"   c #55361E",
".  c #3D2210",
"X  c #A7724B",
"o  c #B2764F",
"O  c #9F6943",
"+  c #52331B",
"@  c #513218",
"#  c #AC734C",
"$  c #AA6E4A",
"%  c #A36A44",
"&  c #422712",
"*  c #472A14",
"=  c #4C2E17",
"-  c #030101",
";  c #58381F",
":  c #553519",
">  c #A66D49",
",  c #0B0301",
"<  c #B37B54",
"1  c #391F0D",
"2  c #C0A98F",
"3  c #271307",
"4  c #9C6541",
"5  c #140701",
"6  c #B7815A",
"7  c #9D7052",
"8  c #B08263",
"9  c #AE7650",
"0  c #5E4027",
"q  c #452C15",
"w  c #221107",
"e  c #2D1707",
"r  c #AC7D5F",
"t  c #97623C",
"y  c #0B0807",
"u  c #A46743",
"i  c #635953",
"p  c #4C4646",
"a  c #5B3C25",
"s  c #935E3D",
"d  c #865534",
"f  c #8C6144",
"g  c #855E44",
"h  c #201C1A",
"j  c #291B11",
"k  c #A57452",
"l  c #644129",
"z  c #7B5338",
"x  c #B58E70",
"c  c #7B8199",
"v  c #C9B496",
"b  c #946A50",
"n  c #7B6656",
"m  c #A8785A",
"M  c #8D5B38",
"N  c #382F2A",
"B  c #4C4139",
"V  c #7A5A44",
"C  c #A8896F",
"Z  c #2C67B7",
"A  c #6F472E",
"S  c #1C0C03",
"D  c #131114",
"F  c #6F6056",
"G  c #9B846C",
"H  c #BB9A7C",
"J  c #AC977D",
"K  c #784C2F",
"L  c #311B0C",
"P  c #29272B",
"I  c #967059",
"U  c #383837",
"Y  c #C3AE91",
"T  c #BC875F",
"R  c #5E4B3F",
"E  c #34251D",
"W  c #714D37",
"Q  c #564437",
"!  c #AE7A52",
"~  c #513525",
"^  c #B49D86",
"/  c #A57D62",
"(  c #887561",
")  c #4D3B30",
"_  c #424042",
"`  c #9CA2B2",
"'  c #9E6C4A",
"]  c #93664A",
"[  c #675346",
"{  c #867D7A",
"}  c #9A8776",
"|  c #8B7D84",
" . c #9B7D6F",
".. c #67697C",
"X. c #664633",
"o. c #43352D",
"O. c #B9A387",
"+. c #41291E",
"@. c #5B504A",
"#. c #7A7677",
"$. c #815235",
"%. c #888FA6",
"&. c #6A442A",
"*. c #535353",
"=. c #7D614B",
"-. c #4C301E",
";. c #352112",
":. c #987B67",
">. c #806F66",
",. c #243557",
"<. c #5C4130",
"1. c #5D80B5",
"2. c #1B3E76",
"3. c #24549A",
"4. c #797A8E",
"5. c #3D5073",
"6. c #2F538C",
"7. c #8395B5",
"8. c #C3A78A",
"9. c #315B96",
"0. c #33486C",
"q. c #0A234D",
"w. c #C39068",
"e. c #225CAB",
"r. c #756B67",
"t. c #775139",
"y. c #214D8E",
"u. c #2D3549",
"i. c #99918D",
"p. c #556C95",
"a. c #C1A082",
"s. c #686565",
"d. c #B0AFB0",
"f. c #374056",
"g. c #171B2A",
/* pixels */
"% ' > O s X X 9 # # X # X o X % 4 X X O # < ! t t O X # < < 6 ' O X % O O O O X # < # ! 6 6 % % % # O % X > > % $ o # $ < ! # # ",
"X X 4 > O 4 X < # # # > # < X X X 6 O % # < 6 ! $ > k k 8 r m / X O O O O ' k m I 7 I 8 I / 8 I 7 7 7 b X k > $ % $ o 9 o # # # ",
"' 9 O O O O O ! # X 9 % < # % $ # # t > # 6 < < < r C / / G G G 8 X t O % 7 C  .} G { } } } } } :.( :.:. ./ m # $ $ 9 9 # o < $ ",
"d ] 6 % 4 t % O > 9 % % < < X O # % O ! X ! 6 8 8 n [ Q B ) Q R n G 8 7  .:.n i p B B p Q p p B p B o.B [ n b k $ $ o o # r ! # ",
"A X 6 T m u $ % 4 4 $ # 6 6 9 X X k k / 7 m 8 C G i P D - - , h @.#.:.C } >.p h y , y y y y y y y - - y P *.n # $ # o o < k ! # ",
"X o o # w.8 X # t O X k > 6 6 X 6 8 ( ( ( ( >.r.*.U y - - - 5 h o.@.s.>.r.*.N j 5 5 5 5 5 w 5 S 5 , - - h _ n < X $ # o < $ 9 ! ",
"o o 9 $ < < # x X O % # o 9 6 r C ( F @.@.@.p f.P D - - - 5 w L N ) p p B N j 3 w 3 e j L L L e 3 5 - - D _ F 6 6 X # # < ! O 9 ",
"o o 9 # o X # o m 9 % % < X < x G @.P D y y y y y - - , 5 e . q & j w w D 3 L L . q q @ = @ = q . w , , h _ n 9 T < $ o < < t # ",
"9 < # # $ % # O 4 X X 9 9 k I ( F B j S 5 5 S 5 5 5 5 S w . * = q L 3 5 S 3 L & q @ @ = 0 q q ;.e 5 - - h p >.k < 9 9 # 9 o < # ",
"< < # $ ! t X O t O X # r b F p N E ;.e e e j j 3 3 3 j L q = + q 1 e 3 e L q = @   0 @ = q ;.w 5 - - - D p n / m # o $ o X # < ",
"< # # $ k 4 % X O O t ' f [ N ;.j . q q = = = q . 1 1 & q = @ + = q . 1 1 & q @   @ 0 : = . j 5 , - - - h _ r.i.C 6 # < $ ! X t ",
"# o # # > t O # # O s g W ) j 3 e . @   0 : :   = @ q q q @ @   + = = q = @ : :     @ 0 q . j w 5 , - y h U i { { / b T k O ! 4 ",
"o 9 % o $ t X # # ' V Q ) E . 1 . q @ 0 : : 0 : 0 + @ + @ +     + @ @ : @ + :     0     @ q q ;.L j 3 3 j j N p i r.G x # k T # ",
"k > > # $ O % $ ' z <.E . . q q = : :     0 :   : @ +   +                       ;         @ = = q q 1 ;.;.L j j U @.#.G 8 8 T 9 ",
"> $ % X % % O > $.) j 5 3 1 :   0   :   @   : : @ : 0 0         :             ;         0   : 0 : : = q . e S , w N i ( } C w.! ",
"> $ % # ' f g t.<.+.. ;.& = +   :   0   0   0 : 0 : : @ 0       :                 ;                 : @ q 1 e 3 3 E N p i n C r ",
"X O % X % z Q +.. . q q @   ;   ; ; ;     +   + ;               0       :       ; + ; +   ; ;         : @ * & . L 3 w h P *.{ 7 ",
"O O % X 7 <.3 5 3 . =     ;         + + + : = @ = = @ @                 : 0   ; ; + + + + + : ; ; ; ;   @ @ * & 1 w 5 y y U F  .",
"O O % 7 b ) y , S 1 : ;   0 ;   ;     + : = = q * * * -.= @         :           + + @ = * @ @ +   ; ; ;   @ * * 1 w , - - U i x ",
"t % # ] n o.y 5 w & q ; ; ;     ; ;     @ q q & & . . & * = @       0           + = * & * * @ +   ; ;   : @ = & L 3 , , y U i ^ ",
"] m 7 g R N D w e & @ ; + + :   ; l &.&.&.&.a   -.* . & . -.+   ; ;       0     + * * . & & = = @ @ + + = = & & 1 w 5 , - o.F r ",
"b I n [ N E 3 j 1 * -.+ + = =   l A z g V z t.W l + & & . = @     ;       :   : + = * . . & & * * * * = * * & & 1 w , - y u.F k ",
"n R N j j L L 1 * = + @ = q = a A g ] 7 7 k 7 f z l + -.* = @         ; ;     : + = * . . . . & & & & & & & & . L w , , - U i 7 ",
"F N D y 5 3 1 & * = + +   ; a A z f k m r r m 7 f z l a + @ @ + : +       0 :   + = & . . . . . . & & & & & & & 1 3 5 , , U i 7 ",
"R h , - 5 e . & & * @ ; l A V g ] 7 m r 6 8 r m 7 ] g V &.a + * = = +   ; ; ; ; + * & . . 1 1 1 . & & * * * * * e w , , y U i ] ",
"@.P , - 5 e 1 & & & * + l z f s 7 m r r 8 8 r r m 7 s g W &.a = = = +   ;   ; + + = * & & & . . & & * @ @ = * & e 3 5 , y U F ] ",
"@.P y - 5 3 1 1 L L . -.a V f 7 m / r 8 8 8 8 r / m b f g K a ~ + : +   ; + + + + + + + + * * & & * @ + @ @ = & 1 w , , y U i b ",
"[ h - - 5 3 1 1 e 3 3 e +.~ X.V b  .x H H H x x I b V R A A W K A l 0   + @ * @ + a l W A l a + @ + + + + @ = * 1 w , , y U i ] ",
"[ N D , S 3 e e S 5 5 5 w ;.+.X.F :.x ^ 8.8.^ C I V <.a a R g g V K l a + = * -.; A z g g z &.a + + + + + @ * & 1 w , , y U i f ",
"n @.P j 3 3 e w 5 - - - - , w o.[ :.J Y v v 2 J >.R +.+.-.W f 7 b g A a = = * ; l z f 7 ' f t.l ; + + + @ @ * & 1 w , , y U i g ",
"7 g V B N j S , - - - - - , D +.[ ( J Y v v 2 J >.R E E o.V I / I g X.; + ~ l K z f 7 m 7 ] z l ; @ @ @ * * * & 1 w , - - U i z ",
"# k k n p E y - - - - - - - S +.[ :.J Y v v 2 J >.X.E +.o.F  .C :.g X.  ; l t.f b k m r 7 f z l ; = * * * & & . 1 w , , y N i f ",
"9 # # 7 ( Q P D - - - - y j E Q n G O.2 v v 2 J G [ B Q R ( } ^ C ( V A A z f 7 m r r r 7 f W l @ = * & . . 1 e L 3 w h P Q g 4 ",
"o # X X I n *.U P y y y j N Q n ( C O.2 v v 2 O.G ( F n n G J ^ J G ( =.=.b 7 / 8 8 8 r 7 f W a @ * . . 1 e e 3 3 ;.N B p z 4 4 ",
"# # X # X 7 G r.p h D D B [ G G ^ O.2 2 v Y 2 2 J J } C C ^ O.2 O.^ J C C C 8 8 r 8 6 r 7 g A   q & . . 1 3 5 5 w N [ g t M t 4 ",
"# # # # % X C { s.P h h B =.G J 2 2 2 2 Y 2 Y 2 2 O.O.O.O.2 2 2 2 O.H J J x 8 8 r m k 7 f V l @ . 1 1 e e e 3 j N Q V ] $ % # M ",
"# # # $ % # ' } #.P h w Q n J H 2 8.v Y Y 2 Y v 2 v v Y v Y Y Y 2 2 a.a.H H 8 r m 7 b g z A ; +.1 e 3 w 3 j N p [ z d M O O # k ",
"# # # % % # X { r.U h h 0 =.C x a.8.8.8.Y Y Y 2 2 v v 2 Y Y Y 2 a.H ^ x x 8 8 m 7 f V &.a + = . 1 w S 5 h U o.X.z z K d 4 > O < ",
"# o # u $ o m } >._ N E B W b G x ^ O.8.2 2 8.8.2 2 2 2 2 2 Y H a.x x 8 8 r / ' f z l + +.. 1 1 L 3 w h N p B K d d d K M > 9 % ",
"# # $ % # $ # x } #.s.@.Q W W =.I r H ^ w.O.H H H H H H H H H H ^ x 8 8 k 7 ] g z &.  & . e e 3 j E o.p i W X.$.d $.M $.M t O O ",
"9 $ % ' $ % O r C i.i.4.F p ) <.R I / r x x x x x x x x x x x T 8 8 8 / 7 f V A a + * . e 3 S S h U i F =.$.M 4 s K M K d s O % ",
"# # > % $ 4 t % 8 2 v ` #._ h j -.R ] m r r 8 8 8 / r r C 8 8 8 r r m 7 s z l @ * & . . e S , , h *.#.I M $.s M O d s d K d 4 % ",
"$ $ > > < s u $ < H 2 d.#._ D S e a V =.I :.:. . . .}  .} :. . ./ I I f z &.; * . . . 1 e S , , h *.{ b 4 K s M t s s d K d s O ",
"$ $ $ % < 4 s # > m ^ d.| _ D , S . a W F >.{ | | | | | | | { { >.>.V V K a * . . . . . w S , , h *.{ b 9 t t.O s 4 s d K A M t ",
"$ $ 9 $ 9 9 u > $ > ^ d.#._ D , , 3 +.) R #.4.| c | c c | c | 4.#.r.[ l ; @ * & . . . 1 e S , , D *.{ I $ k M O s O s d A a d M ",
"> 9 % $ 9 u % > % u J d.#._ D - - S 1 ~ @...4.| %.c c c c c c 4...i R a + * * * * & . 1 3 5 , - h *.{ I % $ % % u % s s $.~ K d ",
"% $ u $ 9 $ > > u $  .^ >.f.D - , S e ) @.4.| %.%.%.c c c c c 4...i R a ; @ @ = * * . 1 w 5 - - D *.{ b % % u O % % u % t a A d ",
"$ $ u $ $ 9 k # % # b C n _ h 5 , 3 ;.) i { %.` ` %.%.%.c c c c ..i R a + + + + + + @ + . e S w P *.#.b $ u $ O O O O O % A &.d ",
"$ o > > $ o o % $ k f f F p E j w e & ) i | %.` ` ` 7.%.c c c 4...i R a : : : : 0 0 0 <.<.0 N N o.i r.=.k > > % O O O M s d A K ",
"o < % u X o o $ # T g X.R X.Q 0 + * -.) i { i.` ` ` ` ` %.%.c c ..i R <.: : : ; 0 W =.n ( n n n F F i i F I 7 > % % % > u s d d ",
"$ 6 o $ $ # 9 # 4 ] X.o.<.[ g z A a ~ ) i #.c ` ` ` ` ` 7.%.c 4...F Q 0 : : : 0 W =.G J J ^ J } G F B U p F I % > % % t u 4 d M ",
"o # o # # # > $ g o.h w ~ t.b b d &.~ ) i ..c 7.7.7.7.7.7.7.1.4...i p <.: : : ; K =.G H 2 v v 2 J n B h E p =.% $ $ O 4 O > 4 % ",
"# o # o o $ X % f Q E S -.t.7 b g l ~ ) p p.p.1.1.1.1.1.1.1.1.p...*.B 0 : @ : 0 W b C O.v v v 2 J =.B h E [ t O $ $ t 4 O % O u ",
"o o o o # $ # u 4 g ~ 3 ~ V b f $.l -.o.u.6.p.Z 1.Z Z Z Z Z Z Z p.0.p B 0 = : 0 W n  .^ 2 v Y 2 C F B E   t 8 6 $ 9 O t O O O # ",
"# o o # $ u # X u > f A $.z z W l = . P ,.5.3.Z Z Z Z Z Z Z e.e.9.5.0.p p B p Q i s.#.i.i.i.} G ( i B R V t 6 X 9 # > O t % # O ",
"o o 9 # % % $ $ > O ! > O M t.l l a +.P ,.2.3.e.Z Z Z Z e.e.e.3.6.6.5.5.5.5.5.5...p.........s.i @.p Q =.t X X X # # $ O X 4 O O ",
"o o $ % # % $ o > O X # ' 4 $.d X ' V N ,.2.3.Z Z Z Z e.e.3.3.y.y.y.3.3.9.3.9.9.9.9.6.6.0.,.u.P P B X.t $ $ X o $ o o % $ o % O ",
"o o $ $ % t u o O O $ > > 4 K > 6 6 X V p ,.2.9.9.9.3.y.y.2.2.2.2.2.y.y.y.6.6.6.6.6.2.0.,.q.D D y B =.O # $ X o o o # $ % $ 9 O ",
"# X X $ % t O # 4 t > > O 4 M < < 6 6 6 g u.f.0.5.0.0.,.,.q.q.q.q.q.q.q.2.,.0.0.5.,.,.,.q.D - - - ; X X $ $ % # # # $ > u % $ % ",
"% % # % # X O # $ 4 # X 4 4 > 6 6 6 w.6 b V R p p _ _ u.P g.g.g.P U u.P u.u.p _ _ _ _ o.h w , 3 l M X 9 $ % % $ X o # % u % u O ",
"% $ # % $ u u 4 % $ # k % O < 6 6 T w.6 X X d X.X.l ~ ~ o.E E +.~ a ~ ~ ~ <.X.X.a a ) ) ~ E ;.a 4 $ $ # $ % > # $ # < $ u u % O ",
"% $ $ u $ % 4 s t $ $ % $ % o < T w.T < ! ! X ' b ] $.$.f ] K &.d K M d M 7 f ' M K $.s t M s s % $ > # u % % # % $ < # O > % O ",
"% $ u % $ $ d M O % $ $ % X < 6 T T T T T 6 < o 6 $ d s 4 T > K 4 s s O % 6 > s 4 d d % > $ # $ % $ 9 % % $ > $ $ # $ o % 4 $ % ",
"> > 4 u $ u s t u % k o $ o 6 6 T w.6 T T 6 < o w.6 $.4 O o < s 4 u 4 4 > 6 T % t M M O $ # $ $ % $ o > $ > $ $ $ o o $ $ u O % "
};
