/* XPM */
static char *_74b7aa0ad2949e69e798278cb21e177digMDgT7ncmzAc85[] = {
/* columns rows colors chars-per-pixel */
"64 64 225 2 ",
"   c #1E170C",
".  c #131B0B",
"X  c #1F1D12",
"o  c #25140C",
"O  c #281E14",
"+  c #0C230A",
"@  c #072E0B",
"#  c #0B2D0D",
"$  c #13250E",
"%  c #112A0E",
"&  c #0A330E",
"*  c #09350C",
"=  c #15340F",
"-  c #192513",
";  c #142D11",
":  c #1B2A12",
">  c #0D3511",
",  c #0D3C12",
"<  c #123413",
"1  c #123C13",
"2  c #183817",
"3  c #1A3B1B",
"4  c #222613",
"5  c #2D2417",
"6  c #292B17",
"7  c #35251A",
"8  c #312818",
"9  c #27361A",
"0  c #36331D",
"q  c #382A22",
"w  c #253E24",
"e  c #373824",
"r  c #422E1E",
"t  c #45301F",
"y  c #4A3322",
"u  c #493825",
"i  c #533A27",
"p  c #0F4215",
"a  c #124416",
"s  c #184415",
"d  c #124817",
"f  c #194B15",
"g  c #134418",
"h  c #1A421A",
"j  c #154C19",
"k  c #1B4D19",
"l  c #1A5118",
"z  c #1B531B",
"x  c #1E591E",
"c  c #25421A",
"v  c #214E1C",
"b  c #21551C",
"n  c #275D1B",
"m  c #225B1D",
"M  c #26611F",
"N  c #29621D",
"B  c #1D4C22",
"V  c #1F5C20",
"C  c #234323",
"Z  c #2A4929",
"A  c #38462A",
"S  c #275724",
"D  c #215E20",
"F  c #2D532D",
"G  c #2D5C2C",
"H  c #34532C",
"J  c #315C2E",
"K  c #304F35",
"L  c #345533",
"P  c #3C5B3A",
"I  c #256322",
"U  c #2B6422",
"Y  c #276824",
"T  c #2B6B25",
"R  c #2F6D28",
"E  c #316C25",
"W  c #32632B",
"Q  c #346E2C",
"!  c #2E7127",
"~  c #2E7228",
"^  c #337426",
"/  c #397E25",
"(  c #327529",
")  c #39762B",
"_  c #357B2C",
"`  c #3A7D2D",
"'  c #396534",
"]  c #3C6C35",
"[  c #3C7233",
"{  c #424A2D",
"}  c #4B4A28",
"|  c #59482B",
" . c #574734",
".. c #485636",
"X. c #65452E",
"o. c #644632",
"O. c #694932",
"+. c #754C33",
"@. c #685433",
"#. c #7C5136",
"$. c #75563B",
"%. c #7C543A",
"&. c #446D3D",
"*. c #427838",
"=. c #435A40",
"-. c #525646",
";. c #705C4E",
":. c #665E53",
">. c #4B6748",
",. c #516346",
"<. c #536C4C",
"1. c #4F7049",
"2. c #57724C",
"3. c #5B6650",
"4. c #546A52",
"5. c #5B6B51",
"6. c #5B7253",
"7. c #65694E",
"8. c #7C6449",
"9. c #646B53",
"0. c #6A6C56",
"q. c #796859",
"w. c #637457",
"e. c #6E735B",
"r. c #717057",
"t. c #73735A",
"y. c #7A755D",
"u. c #6A7862",
"i. c #767A64",
"p. c #865739",
"a. c #8D5B3C",
"s. c #925E3E",
"d. c #94613E",
"f. c #99633E",
"g. c #845D44",
"h. c #8A5E42",
"j. c #965F42",
"k. c #8C6446",
"l. c #866349",
"z. c #8D6449",
"x. c #946242",
"c. c #9B6543",
"v. c #9E6945",
"b. c #946649",
"n. c #956A4A",
"m. c #9D6B4A",
"M. c #886D5A",
"N. c #966F53",
"B. c #857A5F",
"V. c #9C7255",
"C. c #947459",
"Z. c #9B7559",
"A. c #9D795C",
"S. c #A36745",
"D. c #A26B46",
"F. c #A46D4A",
"G. c #A96E4A",
"H. c #A5714C",
"J. c #AB724D",
"K. c #B0744E",
"L. c #A16D54",
"P. c #A47353",
"I. c #AC7551",
"U. c #AD7954",
"Y. c #A47759",
"T. c #A47B5C",
"R. c #AB7B5B",
"E. c #B17651",
"W. c #B27A54",
"Q. c #B47E59",
"!. c #8A7765",
"~. c #867D63",
"^. c #967B63",
"/. c #9C7C63",
"(. c #A47E62",
"). c #AB7E61",
"_. c #B27F60",
"`. c #3B822E",
"'. c #3E8630",
"]. c #3F8831",
"[. c #40832F",
"{. c #418531",
"}. c #438C32",
"|. c #488E34",
" X c #469134",
".X c #4A9536",
"XX c #4D9837",
"oX c #4C9738",
"OX c #4E9A38",
"+X c #519E3A",
"@X c #53A03B",
"#X c #58A73E",
"$X c #589D44",
"%X c #6D8858",
"&X c #61A24F",
"*X c #798364",
"=X c #B6815C",
"-X c #BA845E",
";X c #85816B",
":X c #8A836B",
">X c #95846C",
",X c #98836A",
"<X c #8A8875",
"1X c #928B76",
"2X c #9A8B76",
"3X c #AC8264",
"4X c #A4846B",
"5X c #AC8669",
"6X c #AC886D",
"7X c #B28464",
"8X c #BB8661",
"9X c #BD8B63",
"0X c #B78A6A",
"qX c #A68B73",
"wX c #A7947B",
"eX c #BD9070",
"rX c #BA9578",
"tX c #8DA673",
"yX c #C18B65",
"uX c #C5946D",
"iX c #C79773",
"pX c #A99883",
"aX c #B0A18B",
"sX c #C49F82",
"dX c #C8A388",
/* pixels */
"J.J.U.W.G.K.K.G.F.D.H.F.D.c.J.D.F.F.W.W.U.J.W.J.F.D.v.c.c.F.H.c.m.W.E.U.J.H.m.N.V.3XR.R.H.H.H.c.F.H.K.J.H.H.J.K.J.J.H.d.v.F.H.v.",
"J.J.J.E.I.J.G.D.F.D.H.F.c.F.H.c.G.U.W.E.U.I.I.J.H.D.v.v.D.v.F.F.I.J.=X=XH.=XqX1X<X1X1X2X4Xm.Q.F.H.H.E.J.F.J.J.H.W.J.f.v.H.c.J.H.",
"H.E.E.J.E.E.G.F.J.J.D.F.v.v.d.v.Q.0XeXeXrX3XT.3XY.J.c.F.v.x.I.I.H.W.=X=X8X6X*XL Z A Z ,.:X).Q.I.H.F.E.U.F.J.H.J.I.c.f.c.v.v.I.v.",
"J.U.R.J.E.K.G.K.J.G.H.F.F.d.s.I.eX,Xy.r.r.0.r.y.^.T.H.x.c.H.=XG.U.=XW.-X,Xi.<.Q N U N Q 2.y.4XR.m.J.W.W.F.S.I.H.m.v.D.c.F.=Xk.p.",
"J.R.P.W.E.K.J.H.G.G.J.f.F.v.a.6XqXe.' F L L L ..9.,XN.p.P.H.N.T.3X3X=X7XB.1.) }.|.|.|.[.] 1.1X4XA.3X7X5XW.G.c.x.D.G.v.U.9X-Xm.+.",
"E.J.G.W.E.J.F.F.I.D.v.W.c.U.7XwX*X&.S n n n n n &.*XqX5X9XU./.>X~.:XaXaX*X*./ +X#X#X@X.X) ] w.;X:X:X:X>X5XP.c.c.I.H.3XyXJ.J.E.H.",
"I.v.W.W.J.J.G.Q.E.D.J.yXW.n.iX4.H ) .XXXXXXXXXoX` J 5.rX7X6X~...1 C *XaXtX&XXX+X@X@X@X@XoX|.n 3 3 3 c ,.wXR.F.P.eXH.W.W.H.I.E.I.",
"J.x.W.W.E.G.W.-XH.I.Q.Q.W.h.qX,.b / OX@X@X@X+X+X|.) &.w.9.0.1.G l S 1.6.%X$X@X@X@X+X@X@X+X|.b * d l x J 5.!.3XR.K.H.H.E.K.I.E.W.",
"J.E.K.E.J.J.E.K.m.=XI.7XT.C.wX=.v ) +X#X+X+X#X+X+X|.*.' F Z S W ~ ! S F *..X#X+X#X+X#X+XoX*.b s N ^ ^ T J 4.,XY.H.J.S.H.J.K.W.I.",
"U.J.J.E.J.J.J.J.S.b.T.^.t.y.u.Z v ) XX#X#X+X+X+X@X@X|.E s & b ` .X}.n p U |.+X+X+X+X+X.X` N b N _ }. X`.N G 9.B.V.H.x.I.G.J.K.W.",
"n.H.U.H.W.H.J.H.D.N.^.0.C 2 3 < b / XX@X+X#X+X#X@X@X+XXX^ v U |.#XXXU f E |.@X@X+X+X@X|.N k U ` .X+X+X.X`.Y h 7.A.H.x.P.G.J.J.W.",
"c.J.F.H.-Xx.H.F.R.^.w.' D n E Q ^ `. XXX+X+X+X+X@X@X@X+X|.` {.OX@X+X` U ` .X#X@X+X#X+X.X*.) [..XOX@X@X+X.X^ a 7.A.m.x.G.G.J.W.K.",
"J.9XP.J.U.Y.V.3X4X9.L S ) }..X.X|.}.}.XX@X@X@X@X@X@X@X@X+XoX+X+X@X+X}.[.}.+X@X@X#X+X+X+X+X.X+X+X@X@X@X@XXX^ s 7./.J.d.H.I.F.I.E.",
"U.-XW.U.=X,X0.7.9.Z s N  X+X@X@X+X.X.XXX@X@X@X+X@X@X@X@X+X#X+X+X@X@X.X.XXX+X@X@X+X+X+X#X#X+X+X#X@X@X@XOX XT s 9.A.J.f.H.J.F.m.I.",
"I.uX=XN.4Xe.F h h > 3 E XX@X@X@X+X@X@X+X@X@X@X@X@X@X@X@X@X@X@X@X@X@X+X+X@X@X+X@X#X+X#X+X+X+X#X+X+X+XOX X_ m , 9./.H.c.F.F.F.F.D.",
"W.iX7X:Xi.&.Q ^ U s s E +X#X@X@X@X@X@X@X@X+X@X@X@X@X@X@X+X@X@X@X@X@X@X#X@X@X@X@X+X+X+X+X+X+X+X+X@X+X}._ b & # 5.^.I.c.F.J.F.H.F.",
"I.iX/.0.P W |.OX XU n ) XX@X@X@X@X@X+X@X@X@X@X@X@X@X@X@X@X+X@X@X@X@X@X+X@X@X@X@X@X@X@X@X@X@X@X@X@XoX}.( b s s <.;X3XF.H.J.F.c.H.",
"Q.eX).9.K n XX#XOX{.[.|.@X@X@X@X@X@X@X@X@X@X@X@X@X@X@X@X@X@X@X@X@X@X@X@X+X@X@X@X@X+X@X@X@X@X@X+X@X+X.X|./ ^ ) &.2.B.3XK.H.D.D.c.",
"sXQ.6Xu.H N .X@XoXOXOX+X@X@X@X@X+X@X@X@X@X@X+X@X@X+X@X@X@X@X@X+X@X@X@X@X@X@X@X@X@X@X@X@X@X@X@X@X+X@X+X+XOX@XOX` W 2.,XT.J.H.v.f.",
"dXF./.e.H n .XXX XoX@X@X@X@X@X+X@X@X@X@X@X@X@X@X@X@X@X@X@X@X@X@X+X@X@X@X@X@X+X@X@X@X@X@X@X+X@X@X@X@X@X@X@X#X@X.X*.[ 2.<XR.J.H.c.",
"8XI.6X!.4.] `.{.].XX+X@X@X@X@X@X@X@X+X@X@X@X@X@X@X@X@X@X@X@X@X@X#X+X#X+X@X@X@X@X@X+X@X@X+X@X@X@X@X@X@X@X@X@X@X@XXX*.G <.,X3XU.x.",
"W.W.I.^.:X6.W ^  XOX@X@X@X@X@X@X@X@X@X@X@X+X@X@X@X@X+X@X@X+X@X@X+X+X+X+X@X@X@X@X@X@X@X@X@X@X@X@X@X@X@X@X@X@X@X@X@X.X/ &.<.C.Y.v.",
"I.v.O.h.4Xi.C N oX@X@X@X@X@X@X@X@X@X@X@X@X@X@X@X@X@X@X@X@X@X@X@X+X+X#X+X@X+X@X@X@X+X@X@X@X@X@X@X@X+XoXoX+X@X@X@X@X@X.X) B y.V.J.",
"I.c.%.V.^.i.S N oX@X@X@X@X@X@X@X@X@X@X@X@X+X@X@X@X@X+X@X@X@X@X@X+X#X+X+X@X@X@X@X@X@X@X@X@X@X@X+X@XoX X XXX@X@X@X@X@XXX^ 1 r.Z.I.",
"S.G.L.(.pXu.S R oX@X+XOXOXOX@X@X@X@X@X@X@X@X@X@X@X@X@X@X@X@X@X@X#X+X+X+X#X+X#X+X@X@X@X@X@X@X@X@X@X.X}.}..X+X+X@X@X@XOX^ s t.V.F.",
"D.F.M.~.4.J R '.+X@X+X X]..X@X@X+X@X@X@X@X+X@X@X@X+X@X@X@X@X@X+X+X+X+X#X+X+X+X+X@X@X@X@X@X@X@X@X@X+X.X X].}.oX+X@X@XOX^ s t.V.b.",
"G.p./.i.L b / .X@X@XoX}.'.].oXOX+X@X@X@X@X@X@X@X@X@X@X@X@X@X@X@X#X+X#X+X@X@X#X+XoX.X+X@X@X@X@X@X@X@X+X X_ ! ` ]..XXX XN 1 r.A.d.",
"D.h.qX0.F n }.@X@X@XoX}._ '.}.oX@X@X+X@X@X@X@X@X@X+X@X@X@X+X@X@X+X+X+X+X@X@X$XOX X}..XOX+X+X@X@X@X@X+X}.T x I T / `.`.N h t.A.J.",
"c./.pX5.G R XX#X@XOX.X}.'.'.].oX+X@X@X@X@X@X@X@X@X@X@X@X+X@X@X@X@X@X@X+X@X@X@XOX X'.'.}..XoX+X@X@X@XoX}.U m m D I I U G =.:XR.I.",
"N.2X>.J R '.OX#X@X X]. X.X.XOX+X+X@X@X@X+X@X+X@X@X@X@X@X@X@X@X@X@X@X@X@X+X@X@X@X+X}.( I ! ].oX@X@XoX}.'.}.}.}.) v , h >.>X3XW.F.",
"M.<XZ B ! ]. X}.`.! ( {.OX@X@X@X@X@X@X@X@X@X@X@X@X@X@X@X@X@X@X@X@X@X@X@X@X@X@X@X@XoX` T I R _ `.}.}.`.'. X@X+X{.U s 3 4.5XR.J.J.",
"Y.<XC k T ` _ ! D x I `.@X@X@X@X@X+X+X@X@X@X@X@X@X+X@X@X@X@X@X+X+X@X@X@X@X@X@X@X@X+X X`.T x m I _ `.`.'.XX#X@XXX{.S B ,.4XU.I.U.",
"(.<XC 1 b Y Y z d z Y '.OX#X@X@X+XOXoX+X@X@X@X@X@X+X@X@X@X@X@X@X@X@X@X@X@X+X@X@X@X@X@XoX_ I V V T _ '.}.oX@X@X@X.X~ k =.~.(.R.J.",
"A.<Xw @ > d d d j !  X+X@X@X@X@XOX].].XX@X@X@X@X@X@X@X@X@X@X@X@X@X@X@X@X@X@X@X@X@X+X@X+XoX}._ ~ _ `. XoX@X@X@XoX'.T d a K ~.Y.E.",
"V.2Xu.K 2 & , , j _ oX@X@X@X@X@X.X].'. X@X@X@X@X@X@X+X.XoX+X@X@X@X@X@X@X@X@X@XOXXX.XOX@X@XOX X'._ `.]..X|. X.X'.`.Y x d < t.T.J.",
"x.7X>X4.w @ > , z _ OX@X@X@X@X+X.X].]. X@X@X@X@X@X+X+X].].XX@X@X@X@X+X@X@X@X@X+X X].XXOX@X@XOX.X'._ `.'.`.`.'.`._ _ ! l < t.T.J.",
"P.I.3Xe.Z > s l D '.oX@X@X@X@XOX X]. XOX@X@X@X@X@X+XXX]. X.XXX@X@X@X@X@X@X@X@XOX.X]. X.XOX@X@XoX'._ ( ~ T Y Y ~ ( _ ( m 1 t.T.I.",
"W.P.6X0.F k T R _ }.+X+X+X@XoX].]. X+X@X@X@X+X@X@X@X@X+X].].].+X@X@X@X@X@X@X@X@X@XoX].]..X@X@XoX'.`._ ! V j j D ! _ ^ m 1 t.T.J.",
"H.rX<X4.G U '.}.}.}. X X X X].`.]. X@X@X@X XoXOX@X@X@X@XoX`.].XX@X@X@X@X@X@X@X@X@XOX].`.]. X X}.].].].`.Y l d j x Y I j 1 t.T.J.",
"T.1X=.G T '..XOXoX}.'.'.`.`.`._ `. X+X@X+X].].oX@XOX@X@X].].].XX@X@X@X@X@X@X@X@X@XoX].`._ `.`.'..XoXOX X_ Y z j j j j , < t.T.J.",
"T.<XC s I '.oX@X+X.X}.}.'.` _ _ `.]..X+XOX X]. X]. X X X'.`.].+X@X@X@X@X@X@X@X+XXX X`._ _ _ _ `..X@X@XOX].`.Y z j d p * > t.T.I.",
").:XK 3 l ( oX@X+X+XOXOX.X]._ _ `.`.].XX@XOX.X].`.`.`.`.`.`.].XX@X@X+X@X@XOX+XOX X`._ _ _ _ _ `. X+X@X@X@X X_ I j p , * < r.T.I.",
"P.qXu.K B U }.+X+X#X#X@X+X.X].`.`.`.].OX@X@X+X].`.`._ ( `.].]..XoX@X@X@XoX.X X X`._ Y T _ }.}.}. X XOX@X@XOX`.Y j , * # - q.Y.G.",
"m.N.M.3.Z l (  XOX+X+X+X$XOXXX'.`.].+X@X@X@X@X+X X`._ _ `. X X]. XOX@XOX.X`._ _ _ ~ D I _ XX+XoX].]..X@X@XoX`.I a * @ + O q.Y.P.",
"a.g.;.:.A < V ( ]._ `.}.@X@XOX'.'..X@X@X@X@X@X@X.X'.`.]..XOXOX X}. XoXOXoX].^ I D I D T '.+X@X@X.X.XOXOX.X'.`.Y g & @ + O  .l.V.",
"p.g.q.:.e $ s U _ Y T _  X+XXX`.'..X@X@X@X@X@X+X}.`.`. X+X@X+XOX X]..XOX@X.X_ x j l I _ }.oXoX.XOX+XOXoX'.`.~ Y j , # - 5 7 -.z.",
"j.M.q.-.9 ; k Y ! Y I T _ '.'.`.'..X@X@X+X@X+X X`.R _ oX@X@X@X+XoX X.X+X@XOX].R j d I _ }.}._ ` .XOXoX].`.~ Y V j , # - 7 o y h.",
"z.M.u - ; k R _ _ _ ! D x Y `._ `. XOX+X+X+X.X`.Y z Y  X@X@X@X@X+XOXOX@X@X@XOX}.m 1 b ! _ ! D I '. X`.`.( Y B a g , # O O o i x.",
"l.!.q   & b ^ _ _ _ R l j I _ _ ( ~ ( '. X].`.Y z j V `.oX+X@X+XoX X.X+X@X@X.X'.b > s k x D V T `.`.! V D x j d p , * - r y p.v.",
"g.!.q . = l ( _ _ _ I k 1 b ~ ~ T I Y ~ `.`.T V d d V ( ].oX+XXX X'.]. XoXoX}._ k > * , a z I _ _ ~ x a d j d p p , 1 9 X.#.m.J.",
"z.!.q . # b ( / _ T x a > g I D V D Y ! _ _ Y z p d z ~ `.]. X}.`._ ( ( `.}.'.! x , @ # , j Y _ _ Y l , , d p d d , 9 | z.G.W.G.",
"L.!.q . % k R _ ! x d > & , d d z Y _ _ _ _ ! z d d z ! _ _ _ _ _ _ I z I ! _ ~ m a * # , j I ( ( I d * , p p a p c } N.J.E.J.I.",
"S.C.q   O 2 f m x z d > # # , , z Y _ _ _ _ ~ Y V j j V Y ~ _ _ _ _ I j j V D V k p > @ # , l D D z , @ @ * * * c @.x.J.I.J.E.J.",
"Y.L.o.i i | ..H s p , > # # & , l I ! ! ! _ _ _ Y z d d V Y R ! ~ ! V d d j j d d , > # # < 1 d d , > ; w A { } @.n.F.G.E.E.I.E.",
"S.L.h.g.g.k.l.$.A 3 < ; - ; @ , d z x b x ! _ _ Y z p p d j V V D x z d d p p a , < : : 4 : < > > # ; e  .8.l.k.n.H.D.G.J.W.E.J.",
"m.S.c.L.v.F.J.F.f.A : 4 8 : ; , d p 1 & a M ~ ~ I j d p , > < p d d p p , p p , > # 4 7 7 8 : < ; $ 8 o.n.R.F.F.J.G.D.D.H.E.E.E.",
"c.D.I.G.G.J.K.J.E.v.y 8 r 0 6 = & * * @ > j x V l d a > ; : ; * & & * * * * * & +   O 7 r r q 0 0 8 y +.m.J.v.F.K.G.v.G.D.G.K.K.",
"c.K.H.S.G.J.K.G.J.F.+.i X.+.i 9 ; = ; % > 1 p p a p 1 2 4 8 6 6 : ; % 2 0 A { { }  .i y r t y y y t r X.D.F.v.v.K.v.f.G.D.G.U.W.",
"F.G.D.D.S.J.J.K.G.D.s.p.s.f.p.@.X.| } 8 : < > > * < 2 0 } i O.X.| | u | @.%.l.8.z.z.g.%.+.$.#.%.%.O.O.#.F.G.f.c.K.v.f.G.H.G.G.J.",
"D.D.D.S.D.J.K.H.G.H.D.H.J.G.D.G.G.G.a.X.u 0 w w 9 9 0 O.p.s.s.j.j.d.s.a.c.f.H.G.W.W.I.H.R._.P.I.E.D.c.c.H.H.c.F.H.D.H.G.D.J.D.D.",
"c.D.S.c.F.U.J.G.J.F.S.S.J.G.G.S.G.K.D.H.v.s.:.:.:.@.d.m.v.c.p.s.j.j.c.v.c.c.J.E.W.W.E.J.-XyX-X-XQ.E.S.D.J.J.H.F.c.F.S.G.D.G.D.F.",
"v.F.D.D.J.W.H.G.J.F.F.S.G.G.G.F.G.J.F.J.F.s.%.k.H.s.U.v.c.c.a.s.+.a.W.G.d.d.J.W.E.W.W.W.=X-X9X-XQ.W.D.G.F.F.D.c.s.f.S.G.D.J.D.G.",
"G.G.c.S.K.J.J.G.G.D.D.G.G.J.G.G.G.J.J.G.D.#.p.x.s.H.W.F.c.s.f.c.+.G.-Xc.x.p.G.8XE.K.=X-X-X9X-X8XQ.W.H.F.H.H.S.S.a.p.F.G.D.D.G.G.",
"D.c.D.J.J.K.K.G.G.G.G.G.F.J.G.F.G.H.G.J.c.a.a.d.D.-XQ.G.c.x.D.c.x.W.E.v.c.#.Q.yXW.W.W.-X-X=XuX-X-XQ.W.S.J.J.F.c.f.s.S.H.S.f.G.S."
};
